<svg width="309" height="161" viewBox="0 0 309 161" fill="none" xmlns="http://www.w3.org/2000/svg">
<path d="M89.0399 58.9201C89.0399 60.0501 89.3199 60.9601 89.8899 61.6401C90.4599 62.3201 91.2399 62.8601 92.2399 63.2401C93.2399 63.6201 94.3499 63.9401 95.5599 64.1901C96.7699 64.4401 98.0399 64.6901 99.3399 64.9401C100.64 65.1901 101.9 65.5201 103.12 65.9401C104.34 66.3601 105.44 66.9201 106.42 67.6401C107.4 68.3601 108.19 69.2801 108.77 70.4201C109.35 71.5601 109.65 72.9901 109.65 74.7201C109.65 76.9501 109.09 78.8501 107.98 80.4201C106.86 81.9901 105.34 83.1701 103.4 83.9701C101.47 84.7701 99.2499 85.1701 96.7499 85.1701C94.2499 85.1701 92.0199 84.7901 90.0699 84.0201C88.1199 83.2501 86.4999 82.0901 85.2199 80.5201C83.9399 78.9501 83.0599 76.9901 82.5999 74.6201H88.4499C88.9499 76.5501 89.8999 78.0301 91.2999 79.0501C92.6999 80.0701 94.5299 80.5701 96.7999 80.5701C99.0699 80.5701 100.9 80.1001 102.1 79.1701C103.3 78.2401 103.9 77.0001 103.9 75.4701C103.9 74.2701 103.62 73.3001 103.05 72.5501C102.48 71.8001 101.7 71.2201 100.7 70.8001C99.6999 70.3801 98.5899 70.0301 97.3799 69.7501C96.1599 69.4701 94.8999 69.1901 93.5999 68.9301C92.2999 68.6701 91.0399 68.3301 89.8199 67.9301C88.5999 67.5301 87.4999 66.9901 86.5199 66.3101C85.5399 65.6301 84.7499 64.7301 84.1699 63.6301C83.5899 62.5301 83.2899 61.1101 83.2899 59.3801C83.2899 57.6501 83.7599 56.1101 84.6899 54.6601C85.6199 53.2101 86.9799 52.0501 88.7699 51.1901C90.5599 50.3301 92.7499 49.8901 95.3499 49.8901C97.5799 49.8901 99.6399 50.2701 101.52 51.0101C103.4 51.7601 104.98 52.9101 106.25 54.4601C107.52 56.0101 108.35 58.0401 108.75 60.5401H102.8C102.33 58.4401 101.45 56.9101 100.15 55.9401C98.8499 54.9701 97.1999 54.4901 95.1999 54.4901C93.1999 54.4901 91.7599 54.9001 90.6799 55.7101C89.5999 56.5301 89.0599 57.6001 89.0599 58.9401L89.0399 58.9201Z" fill="#EAE9E4"/>
<path d="M142.39 71.5701C142.39 74.3701 141.82 76.7901 140.69 78.8201C139.56 80.8501 137.97 82.4201 135.92 83.5201C133.87 84.6201 131.41 85.1701 128.54 85.1701C125.67 85.1701 123.21 84.6201 121.14 83.5201C119.07 82.4201 117.48 80.8501 116.36 78.8201C115.24 76.7901 114.69 74.3701 114.69 71.5701V50.5201H120.29V71.5701C120.29 74.4001 121.02 76.6301 122.49 78.2401C123.96 79.8601 125.97 80.6701 128.54 80.6701C131.11 80.6701 133.16 79.8501 134.61 78.2201C136.06 76.5901 136.79 74.3701 136.79 71.5701V50.5201H142.39V71.5701Z" fill="#EAE9E4"/>
<path d="M149.29 84.5201V50.5201H154.69L154.89 84.5201H149.29ZM171.14 84.5201L156.94 62.4201L150.59 50.5201H155.14L169.39 72.7201L175.74 84.5201H171.14ZM171.59 84.5201L171.39 50.5201H176.99V84.5201H171.59Z" fill="#EAE9E4"/>
<path d="M182.09 55.2201V50.5201H210.34V55.2201H182.09ZM193.44 84.5201V50.5201H199.04V84.5201H193.44Z" fill="#EAE9E4"/>
<path d="M235.19 84.5201L225.54 59.2201L224.39 55.4201H224.69L223.54 59.2201L213.89 84.5201H208.29L221.39 50.5201H227.94L241.04 84.5201H235.19ZM215.89 76.8701V72.4701H233.04V76.8701H215.89Z" fill="#EAE9E4"/>
<path d="M245.54 84.5201V50.5201H251.14V84.5201H245.54ZM258.79 69.7201H249.59V66.2701H258.04C260.14 66.2701 261.75 65.7601 262.86 64.7401C263.98 63.7201 264.54 62.3501 264.54 60.6201C264.54 58.8901 263.98 57.5601 262.86 56.5501C261.74 55.5401 260.17 55.0201 258.14 55.0201H249.59V50.5201H258.29C261.96 50.5201 264.87 51.4001 267.04 53.1401C269.21 54.8901 270.29 57.2801 270.29 60.3101C270.29 63.3401 269.25 65.7101 267.17 67.3101C265.09 68.9101 262.29 69.7101 258.79 69.7101V69.7201ZM265.99 84.5201L263.94 75.4201C263.64 74.1201 263.25 73.1401 262.77 72.4701C262.29 71.8001 261.65 71.3501 260.85 71.1201C260.05 70.8901 259.03 70.7701 257.8 70.7701H250.55V67.1701H258.6C260.87 67.1701 262.71 67.3801 264.12 67.7901C265.53 68.2001 266.65 68.9301 267.45 69.9601C268.25 70.9901 268.88 72.4401 269.35 74.3101L271.9 84.5101H266L265.99 84.5201Z" fill="#EAE9E4"/>
<path d="M301.09 84.5201L291.44 59.2201L290.29 55.4201H290.59L289.44 59.2201L279.79 84.5201H274.19L287.29 50.5201H293.84L306.94 84.5201H301.09ZM281.79 76.8701V72.4701H298.94V76.8701H281.79Z" fill="#EAE9E4"/>
<path d="M89.0399 102.92C89.0399 104.05 89.3199 104.96 89.8899 105.64C90.4599 106.32 91.2399 106.86 92.2399 107.24C93.2399 107.62 94.3499 107.94 95.5599 108.19C96.7699 108.44 98.0399 108.69 99.3399 108.94C100.64 109.19 101.9 109.52 103.12 109.94C104.34 110.36 105.44 110.92 106.42 111.64C107.4 112.36 108.19 113.28 108.77 114.42C109.35 115.56 109.65 116.99 109.65 118.72C109.65 120.95 109.09 122.85 107.98 124.42C106.86 125.99 105.34 127.17 103.4 127.97C101.47 128.77 99.2499 129.17 96.7499 129.17C94.2499 129.17 92.0199 128.79 90.0699 128.02C88.1199 127.25 86.4999 126.09 85.2199 124.52C83.9399 122.95 83.0599 120.99 82.5999 118.62H88.4499C88.9499 120.55 89.8999 122.03 91.2999 123.05C92.6999 124.07 94.5299 124.57 96.7999 124.57C99.0699 124.57 100.9 124.1 102.1 123.17C103.3 122.24 103.9 121 103.9 119.47C103.9 118.27 103.62 117.3 103.05 116.55C102.48 115.8 101.7 115.22 100.7 114.8C99.6999 114.38 98.5899 114.03 97.3799 113.75C96.1599 113.47 94.8999 113.19 93.5999 112.93C92.2999 112.67 91.0399 112.33 89.8199 111.93C88.5999 111.53 87.4999 110.99 86.5199 110.31C85.5399 109.63 84.7499 108.73 84.1699 107.63C83.5899 106.53 83.2899 105.11 83.2899 103.38C83.2899 101.65 83.7599 100.11 84.6899 98.6601C85.6199 97.2101 86.9799 96.0501 88.7699 95.1901C90.5599 94.3301 92.7499 93.8901 95.3499 93.8901C97.5799 93.8901 99.6399 94.2701 101.52 95.0101C103.4 95.7601 104.98 96.9101 106.25 98.4601C107.52 100.01 108.35 102.04 108.75 104.54H102.8C102.33 102.44 101.45 100.91 100.15 99.9401C98.8499 98.9701 97.1999 98.4901 95.1999 98.4901C93.1999 98.4901 91.7599 98.9001 90.6799 99.7101C89.5999 100.53 89.0599 101.6 89.0599 102.94L89.0399 102.92Z" fill="#EAE9E4"/>
<path d="M116.64 94.5201L123.89 107.87L125.69 111.97H125.14L126.84 107.87L134.09 94.5201H140.04L127.99 116.17H122.39L110.34 94.5201H116.64ZM122.39 128.52V116.17H127.99V128.52H122.39Z" fill="#EAE9E4"/>
<path d="M148.39 102.92C148.39 104.05 148.67 104.96 149.24 105.64C149.81 106.32 150.59 106.86 151.59 107.24C152.59 107.62 153.7 107.94 154.91 108.19C156.12 108.44 157.39 108.69 158.69 108.94C159.99 109.19 161.25 109.52 162.47 109.94C163.69 110.36 164.79 110.92 165.77 111.64C166.75 112.36 167.54 113.28 168.12 114.42C168.7 115.56 169 116.99 169 118.72C169 120.95 168.44 122.85 167.33 124.42C166.21 125.99 164.69 127.17 162.75 127.97C160.82 128.77 158.6 129.17 156.1 129.17C153.6 129.17 151.37 128.79 149.42 128.02C147.47 127.25 145.85 126.09 144.57 124.52C143.29 122.95 142.41 120.99 141.95 118.62H147.8C148.3 120.55 149.25 122.03 150.65 123.05C152.05 124.07 153.88 124.57 156.15 124.57C158.42 124.57 160.25 124.1 161.45 123.17C162.65 122.24 163.25 121 163.25 119.47C163.25 118.27 162.97 117.3 162.4 116.55C161.83 115.8 161.05 115.22 160.05 114.8C159.05 114.38 157.94 114.03 156.73 113.75C155.51 113.47 154.25 113.19 152.95 112.93C151.65 112.67 150.39 112.33 149.17 111.93C147.95 111.53 146.85 110.99 145.87 110.31C144.89 109.63 144.1 108.73 143.52 107.63C142.94 106.53 142.64 105.11 142.64 103.38C142.64 101.65 143.11 100.11 144.04 98.6601C144.97 97.2101 146.33 96.0501 148.12 95.1901C149.91 94.3301 152.1 93.8901 154.7 93.8901C156.93 93.8901 158.99 94.2701 160.87 95.0101C162.75 95.7601 164.33 96.9101 165.6 98.4601C166.87 100.01 167.7 102.04 168.1 104.54H162.15C161.68 102.44 160.8 100.91 159.5 99.9401C158.2 98.9701 156.55 98.4901 154.55 98.4901C152.55 98.4901 151.11 98.9001 150.03 99.7101C148.95 100.53 148.41 101.6 148.41 102.94L148.39 102.92Z" fill="#EAE9E4"/>
<path d="M170.49 99.2201V94.5201H198.74V99.2201H170.49ZM181.84 128.52V94.5201H187.44V128.52H181.84Z" fill="#EAE9E4"/>
<path d="M203.84 128.52V94.5201H209.44V128.52H203.84ZM207.89 99.0201V94.5201H227.29V99.0201H207.89ZM207.89 113.17V108.72H225.39V113.17H207.89ZM207.89 128.52V124.02H227.29V128.52H207.89Z" fill="#EAE9E4"/>
<path d="M233.04 128.52V94.5201H238.44L238.64 128.52H233.04ZM253.19 128.52H249.19L240.89 108.22L236.24 94.5201H240.59L250.19 118.07L251.69 122.87H250.94L252.49 118.07L261.99 94.5201H266.09L261.44 108.27L253.19 128.52ZM263.74 128.52L263.94 94.5201H269.34V128.52H263.74Z" fill="#EAE9E4"/>
<path d="M281.19 102.92C281.19 104.05 281.47 104.96 282.04 105.64C282.61 106.32 283.39 106.86 284.39 107.24C285.39 107.62 286.5 107.94 287.71 108.19C288.92 108.44 290.19 108.69 291.49 108.94C292.79 109.19 294.05 109.52 295.27 109.94C296.49 110.36 297.59 110.92 298.57 111.64C299.55 112.36 300.34 113.28 300.92 114.42C301.5 115.56 301.8 116.99 301.8 118.72C301.8 120.95 301.24 122.85 300.13 124.42C299.01 125.99 297.49 127.17 295.55 127.97C293.62 128.77 291.4 129.17 288.9 129.17C286.4 129.17 284.17 128.79 282.22 128.02C280.27 127.25 278.65 126.09 277.37 124.52C276.09 122.95 275.21 120.99 274.75 118.62H280.6C281.1 120.55 282.05 122.03 283.45 123.05C284.85 124.07 286.68 124.57 288.95 124.57C291.22 124.57 293.05 124.1 294.25 123.17C295.45 122.24 296.05 121 296.05 119.47C296.05 118.27 295.77 117.3 295.2 116.55C294.63 115.8 293.85 115.22 292.85 114.8C291.85 114.38 290.74 114.03 289.53 113.75C288.31 113.47 287.05 113.19 285.75 112.93C284.45 112.67 283.19 112.33 281.97 111.93C280.75 111.53 279.65 110.99 278.67 110.31C277.69 109.63 276.9 108.73 276.32 107.63C275.74 106.53 275.44 105.11 275.44 103.38C275.44 101.65 275.91 100.11 276.84 98.6601C277.77 97.2101 279.13 96.0501 280.92 95.1901C282.71 94.3301 284.9 93.8901 287.5 93.8901C289.73 93.8901 291.79 94.2701 293.67 95.0101C295.55 95.7601 297.13 96.9101 298.4 98.4601C299.67 100.01 300.5 102.04 300.9 104.54H294.95C294.48 102.44 293.6 100.91 292.3 99.9401C291 98.9701 289.35 98.4901 287.35 98.4901C285.35 98.4901 283.91 98.9001 282.83 99.7101C281.75 100.53 281.21 101.6 281.21 102.94L281.19 102.92Z" fill="#EAE9E4"/>
<path d="M71.1999 77.2401C70.6699 76.3601 76.2799 73.7101 75.1599 72.3401C74.4099 71.4201 71.7999 72.6801 70.2999 73.7801C68.7999 74.8801 68.5699 73.9801 68.8399 72.0101C69.1099 70.0401 68.8799 68.9301 67.9899 68.8101C67.0999 68.6901 66.2499 70.7801 65.7599 73.1501C65.2799 75.5201 63.3199 75.1701 63.3199 75.1701C63.3199 75.1701 59.6399 67.4601 55.8899 67.0901C52.1399 66.7201 47.3399 74.8501 46.9099 74.8001C46.4799 74.7501 46.7499 70.6501 44.3599 64.6901C41.9699 58.7301 41.2199 49.2601 41.2199 49.2601C41.2199 49.2601 45.8999 53.5701 48.7599 54.4201C51.6199 55.2701 58.4199 50.0801 58.4199 50.0801C58.8899 49.8901 60.6799 49.2901 61.5899 49.8101C62.5099 50.3301 64.3599 52.4801 65.4299 51.8901C66.4899 51.3001 64.6599 49.0701 63.9199 48.4501C63.1799 47.8301 62.7899 46.5201 64.8299 45.5601C66.8699 44.6001 68.9699 43.1801 68.2599 42.1401C67.4199 40.9001 63.2999 43.6601 62.3599 43.2401C61.4199 42.8201 64.5199 37.4401 62.8199 36.9501C61.6799 36.6201 60.2499 39.1401 59.6399 40.9001C59.0299 42.6601 58.3299 42.0501 57.4299 40.2801C56.5299 38.5001 55.7099 37.7201 54.9099 38.1301C54.1099 38.5401 54.5999 40.7401 55.5499 42.9701C56.4999 45.1901 54.6899 46.0201 54.6899 46.0201C54.6899 46.0201 51.4599 47.5401 50.5399 47.7901C49.6199 48.0301 48.0499 45.4501 48.0499 45.4501C46.2099 43.3201 43.0499 37.8201 44.5699 34.5601C46.0899 31.3001 56.6899 27.8401 58.8399 23.3401C60.9899 18.8401 62.1799 14.2401 62.4699 9.06009C62.7599 3.88009 60.2799 0.840087 52.6799 2.07009C45.0799 3.31009 39.8999 6.20009 38.1399 7.73009C36.3799 9.25009 34.1999 15.6701 31.6799 20.1301C29.1599 24.6001 26.3999 26.0201 20.4199 26.7401C14.4399 27.4601 16.5999 19.0701 16.5999 19.0701L16.6799 18.8301C16.8499 18.3501 17.4999 16.6301 18.4899 16.2901C19.4899 15.9501 22.3299 16.0001 22.5999 14.8101C22.8699 13.6201 19.9799 13.5001 19.0299 13.6401C18.0699 13.7801 16.8399 13.2001 17.4799 11.0301C18.1199 8.86009 18.4599 6.36009 17.2099 6.19009C15.7199 5.99009 15.0399 10.9001 14.0999 11.3201C13.1599 11.7401 11.2199 5.85009 9.71994 6.79009C8.70994 7.42009 9.64994 10.1701 10.5499 11.7901C11.4499 13.4101 10.5399 13.5301 8.61994 13.0201C6.69994 12.5101 5.56994 12.6001 5.33994 13.4701C5.10994 14.3401 7.07994 15.4401 9.37994 16.2101C11.6699 16.9801 11.0799 18.8801 11.0799 18.8801C11.0799 18.8801 11.0599 22.1601 11.1099 27.8201C11.1599 33.4701 19.5499 32.1201 19.9699 33.2301C20.3899 34.3301 17.7699 38.2301 15.7299 42.7201C13.6999 47.2101 12.2599 53.3101 13.0999 64.0701C13.9499 74.8301 21.4899 82.2001 21.4899 82.2001C21.4899 82.2001 14.6799 81.5801 12.0199 83.2201C9.34994 84.8701 12.6999 94.4601 12.6999 94.4601C12.2199 94.6301 10.4099 95.1501 9.51994 94.5901C8.62994 94.0301 6.86994 91.8001 5.77994 92.3401C4.68994 92.8901 6.41994 95.1901 7.13994 95.8401C7.85994 96.4901 8.17994 97.8201 6.09994 98.6901C4.01994 99.5601 1.85994 100.89 2.51994 101.96C3.30994 103.24 7.53994 100.66 8.45994 101.12C9.37994 101.58 6.04994 106.82 7.71994 107.38C8.84994 107.76 10.3799 105.3 11.0599 103.57C11.7399 101.84 12.4199 102.48 13.2399 104.29C14.0599 106.1 14.8399 106.92 15.6599 106.54C16.4799 106.17 16.0799 103.94 15.2299 101.68C14.7799 100.5 15.1399 99.8001 15.5099 99.3301C15.7899 98.9701 16.0199 98.6501 16.2399 98.2601L16.7899 97.3101C17.5499 95.9601 17.9999 94.4601 18.0599 92.9101C18.1399 91.0701 18.0099 89.2401 18.0099 89.2401C18.0099 89.2401 19.1399 90.1101 21.5699 90.9701C24.0099 91.8301 29.4999 92.2301 29.4999 92.2301C29.4999 92.2301 32.2699 93.4201 40.9899 99.2701C49.7099 105.12 56.8399 115.02 57.7299 120.67C58.6199 126.32 60.4999 141.48 42.6699 149.6C24.8399 157.72 11.1499 144.92 11.1499 144.92C11.1499 144.92 11.7099 149.52 21.0299 154.46C30.3499 159.4 41.6799 158.16 47.5199 155.92C53.3599 153.68 70.7499 143.57 69.9699 121.01C69.1799 98.4501 54.9199 86.6001 54.4499 84.0501C53.9799 81.5001 56.4599 75.8101 56.4599 75.8101L58.2399 77.4701C59.8899 79.0801 64.0099 80.6201 64.0099 80.6201C64.4999 80.7301 66.3099 81.2601 66.7699 82.2101C67.2299 83.1601 67.5299 85.9901 68.7399 86.1101C69.9499 86.2301 69.7199 83.3501 69.4599 82.4201C69.1999 81.4901 69.6299 80.1901 71.8599 80.5601C74.0799 80.9301 76.6199 80.9601 76.6299 79.7001C76.6499 78.2001 71.6899 78.1201 71.1599 77.2401H71.1999Z" fill="#2BA52E"/>
<path d="M35.9299 158.01C30.9699 158.01 25.6599 157.03 21.0099 154.56C11.7399 149.65 11.0899 145.11 11.0699 144.92L11.0299 144.58L11.2799 144.82C11.2799 144.82 14.7599 148.03 20.3199 150.19C25.4499 152.17 33.4899 153.66 42.6599 149.48C50.2699 146.01 55.1399 140.86 57.1399 134.16C58.6699 129.05 58.2099 124.27 57.6399 120.68C56.5699 113.9 48.1399 104.19 40.9499 99.3601C32.7099 93.8301 29.7499 92.4601 29.4999 92.3401C29.1199 92.3101 23.9099 91.9001 21.5599 91.0701C19.6999 90.4201 18.6099 89.7601 18.1799 89.4701C18.2099 90.0401 18.2699 91.4701 18.2099 92.8901C18.1499 94.4201 17.6999 95.9601 16.9199 97.3401L16.3699 98.2901C16.1599 98.6501 15.9399 98.9801 15.6299 99.3701C15.2799 99.8101 14.9399 100.46 15.3699 101.6C16.1799 103.74 16.6999 106.18 15.7399 106.62C15.4799 106.74 15.1999 106.75 14.9399 106.65C14.3499 106.43 13.7699 105.66 13.1499 104.3C12.9599 103.89 12.3999 102.64 11.9299 102.64C11.6999 102.64 11.4499 102.97 11.2099 103.58C10.6399 105.04 9.02994 107.91 7.70994 107.46C7.49994 107.39 7.34994 107.26 7.25994 107.06C6.90994 106.34 7.42994 104.92 7.92994 103.54C8.28994 102.56 8.72994 101.34 8.42994 101.19C8.09994 101.02 7.10994 101.37 6.15994 101.7C4.58994 102.25 2.95994 102.82 2.43994 101.98C2.28994 101.74 2.25994 101.47 2.34994 101.19C2.71994 100.04 5.07994 98.9401 6.06994 98.5301C6.94994 98.1601 7.45994 97.6701 7.55994 97.1201C7.62994 96.6901 7.44994 96.2301 7.06994 95.8901C6.51994 95.3901 5.19994 93.7301 5.32994 92.7601C5.36994 92.4901 5.49994 92.3001 5.73994 92.1801C6.58994 91.7501 7.73994 92.8001 8.66994 93.6501C9.01994 93.9701 9.35994 94.2801 9.60994 94.4301C10.3299 94.8801 11.7999 94.5801 12.5699 94.3301C12.1699 93.1601 9.38994 84.6601 11.9799 83.0601C14.3399 81.6001 19.7899 81.8901 21.1999 81.9901C19.9199 80.6301 13.7699 73.6301 13.0099 64.0201C12.5199 57.8401 12.3799 49.8201 15.6499 42.6101C16.3899 40.9701 17.2099 39.4101 17.9399 38.0301C19.1199 35.7901 20.1299 33.8601 19.8899 33.2101C19.7899 32.9501 18.8699 32.8301 17.8899 32.7001C15.3399 32.3701 11.0599 31.8201 11.0199 27.7601C10.9699 22.1701 10.9899 18.8501 10.9899 18.8201V18.7801C11.0199 18.7101 11.5199 16.9901 9.36994 16.2701C7.19994 15.5401 4.98994 14.4001 5.24994 13.3801C5.31994 13.1001 5.48994 12.8801 5.72994 12.7401C6.26994 12.4301 7.23994 12.4601 8.67994 12.8401C9.11994 12.9601 10.4499 13.3101 10.7499 12.9401C10.8899 12.7601 10.7999 12.3601 10.4799 11.7901C9.70994 10.4201 8.51994 7.36009 9.68994 6.62009C9.86994 6.50009 10.0699 6.47009 10.2799 6.52009C11.0599 6.71009 11.8299 8.01009 12.5799 9.27009C13.1199 10.1701 13.7699 11.2801 14.0799 11.1501C14.4199 11.0001 14.7799 10.0201 15.1199 9.07009C15.6699 7.56009 16.2399 6.01009 17.1399 6.01009C17.1799 6.01009 17.2099 6.01009 17.2499 6.01009C17.5299 6.05009 17.7599 6.19009 17.9199 6.44009C18.5799 7.45009 17.9299 9.97009 17.6299 11.0101C17.3599 11.9301 17.4099 12.6301 17.7799 13.0601C18.0599 13.3901 18.5399 13.5401 19.0499 13.4601C19.7799 13.3501 21.9099 13.3801 22.5799 14.0901C22.7599 14.2901 22.8299 14.5201 22.7699 14.7701C22.5599 15.7001 21.0199 15.9301 19.7799 16.1101C19.3099 16.1801 18.8599 16.2401 18.5799 16.3401C17.9599 16.5501 17.3399 17.4201 16.8399 18.8001L16.7699 19.0401C16.7699 19.0401 15.6199 23.6101 17.3799 25.6201C18.0599 26.4001 19.0899 26.7001 20.4599 26.5401C26.6099 25.8101 29.2099 24.2801 31.6299 20.0001C32.6499 18.2001 33.5899 16.1101 34.5099 14.0901C35.8699 11.0901 37.0499 8.49009 38.1199 7.57009C39.7499 6.16009 44.8999 3.16009 52.7299 1.89009C56.5099 1.28009 59.2399 1.70009 60.8499 3.15009C62.1999 4.36009 62.8099 6.33009 62.6599 9.01009C62.3699 14.1801 61.2199 18.7301 59.0199 23.3401C57.8399 25.8001 54.1399 27.9801 50.8599 29.9101C48.0699 31.5501 45.4299 33.1001 44.7399 34.5701C43.2099 37.8301 46.4799 43.3201 48.1999 45.3201C48.6399 46.0301 49.8899 47.8001 50.5599 47.6201C51.4599 47.3801 54.6599 45.8801 54.6899 45.8601C54.7599 45.8301 56.3799 45.0601 55.4899 42.9701C54.5899 40.8701 53.9599 38.4601 54.9099 37.9701C55.1699 37.8401 55.4399 37.8101 55.7099 37.9001C56.3099 38.0901 56.9199 38.8401 57.5999 40.1701C57.7999 40.5701 58.4099 41.7801 58.8799 41.7801C58.8799 41.7801 58.8899 41.7801 58.8999 41.7801C59.1299 41.7601 59.3599 41.4301 59.5699 40.8101C60.2199 38.9301 61.6799 36.4301 62.8999 36.7801C63.1099 36.8401 63.2699 36.9701 63.3699 37.1601C63.7499 37.8701 63.2899 39.3101 62.8499 40.7101C62.5399 41.7101 62.1499 42.9501 62.4499 43.0801C62.7899 43.2301 63.7599 42.8401 64.6999 42.4701C66.2499 41.8501 67.8499 41.2201 68.3999 42.0201C68.5599 42.2601 68.5999 42.5201 68.5199 42.8001C68.1999 43.9601 65.8899 45.1601 64.9199 45.6301C64.0599 46.0401 63.5599 46.5501 63.4899 47.1001C63.4299 47.5301 63.6399 47.9801 64.0299 48.3101C64.5999 48.7801 65.9999 50.3901 65.9099 51.3601C65.8899 51.6301 65.7599 51.8301 65.5299 51.9601C64.6999 52.4201 63.4999 51.4201 62.5399 50.6201C62.1699 50.3101 61.8199 50.0201 61.5699 49.8801C60.7999 49.4401 59.2499 49.8601 58.5199 50.1501C58.0899 50.4801 51.6199 55.3501 48.7599 54.5001C46.2399 53.7501 42.3999 50.4201 41.4099 49.5201C41.5699 51.2201 42.3999 59.3401 44.5099 64.6001C46.0999 68.5601 46.5199 71.6901 46.7499 73.3801C46.8299 73.9301 46.8999 74.4601 46.9699 74.6101C47.1199 74.4801 47.5199 73.9601 47.9299 73.4101C49.6699 71.1201 52.8699 66.9101 55.6699 66.9101C55.7599 66.9101 55.8499 66.9101 55.9399 66.9201C59.5899 67.2801 63.0599 74.2301 63.4399 75.0101C63.7699 75.0401 65.2599 75.1001 65.6799 73.0801C66.1399 70.8401 67.0099 68.4901 68.0499 68.6401C68.3399 68.6801 68.5699 68.8101 68.7499 69.0401C69.1299 69.5401 69.2099 70.5001 69.0099 71.9801C68.9499 72.4301 68.7599 73.8001 69.1599 74.0401C69.3599 74.1601 69.7399 74.0201 70.2699 73.6301C71.5299 72.7001 74.4299 71.1401 75.2999 72.2101C75.4399 72.3801 75.4899 72.5701 75.4699 72.7901C75.3799 73.5801 74.1799 74.5101 73.0299 75.4101C72.2099 76.0501 71.1799 76.8501 71.3499 77.1301C71.5399 77.4501 72.5599 77.6801 73.5499 77.9101C75.1699 78.2901 76.8499 78.6701 76.8399 79.6501C76.8399 79.9401 76.7199 80.1801 76.4999 80.3601C75.5699 81.1401 72.9899 80.8101 71.9299 80.6301C70.9899 80.4701 70.2899 80.6101 69.9199 81.0301C69.6299 81.3501 69.5399 81.8401 69.6799 82.3301C69.8799 83.0501 70.1099 85.1601 69.4799 85.9101C69.3099 86.1101 69.0799 86.2001 68.8299 86.1801C67.8799 86.0901 67.4699 84.5801 67.1299 83.3801C66.9999 82.9201 66.8799 82.4801 66.7499 82.2201C66.3599 81.4101 64.8299 80.8701 64.0699 80.7001C63.8899 80.6301 59.8899 79.1201 58.2399 77.5201L56.5899 75.9901C56.1899 76.9401 54.2399 81.7501 54.6499 83.9901C54.7499 84.5501 55.6199 85.6601 56.8199 87.2001C60.9599 92.5101 69.5699 103.57 70.1699 120.96C70.5099 130.7 67.5599 139.16 61.3999 146.12C55.5499 152.73 48.9099 155.5 47.6399 155.99C44.5099 157.2 40.3799 157.97 35.9699 157.97L35.9299 158.01ZM11.3899 145.25C11.8499 147.01 14.3199 150.73 21.1299 154.34C29.8499 158.96 40.9199 158.33 47.5199 155.79C48.7799 155.3 55.3699 152.55 61.1799 145.99C67.2999 139.08 70.2299 130.67 69.8899 121C69.2899 103.68 60.7099 92.6701 56.5899 87.3801C55.3199 85.7501 54.4899 84.6801 54.3699 84.0601C53.8999 81.5001 56.2899 75.9801 56.3899 75.7501L56.4599 75.5901L58.3699 77.3701C59.9799 78.9501 64.0599 80.4801 64.0999 80.5001C64.1799 80.5201 66.3899 81.0401 66.9299 82.1501C67.0699 82.4301 67.1799 82.8601 67.3199 83.3501C67.6299 84.4801 68.0199 85.8901 68.7999 85.9701C68.9799 85.9901 69.1199 85.9301 69.2399 85.7901C69.7699 85.1601 69.5799 83.1601 69.3899 82.4401C69.2299 81.8601 69.3399 81.2901 69.6899 80.9001C69.9899 80.5601 70.6299 80.2001 71.9299 80.4201C74.0799 80.7801 75.7099 80.7001 76.2999 80.2101C76.4699 80.0701 76.5499 79.9001 76.5499 79.6901C76.5499 78.9101 74.8299 78.5101 73.4499 78.1901C72.3199 77.9301 71.3499 77.7001 71.0999 77.3001C70.8099 76.8301 71.7099 76.1301 72.8399 75.2501C73.8999 74.4201 75.1099 73.4901 75.1899 72.8001C75.2099 72.6501 75.1699 72.5201 75.0799 72.4101C74.4199 71.6001 71.9299 72.7401 70.3899 73.8701C69.7499 74.3401 69.3099 74.4701 69.0099 74.2901C68.6299 74.0601 68.5399 73.3701 68.7399 71.9801C68.9299 70.5901 68.8599 69.6601 68.5299 69.2301C68.3999 69.0601 68.2199 68.9601 67.9999 68.9301C67.9799 68.9301 67.9599 68.9301 67.9499 68.9301C67.2599 68.9301 66.4299 70.6501 65.9199 73.1801C65.4199 75.6401 63.3599 75.3001 63.3299 75.2901H63.2699L63.2399 75.2201C63.1999 75.1401 59.5499 67.5701 55.9099 67.2101C53.1899 66.9601 49.7699 71.4401 48.1199 73.6001C47.2499 74.7401 47.0899 74.9401 46.9199 74.9201C46.6799 74.8901 46.6299 74.5301 46.4899 73.4501C46.2599 71.7701 45.8499 68.6601 44.2699 64.7301C41.8999 58.8201 41.1299 49.3501 41.1199 49.2601L41.0999 48.9401L41.3299 49.1601C41.3299 49.1601 46.0199 53.4601 48.8199 54.2901C51.5799 55.1201 58.2999 50.0301 58.3699 49.9701L58.3999 49.9501C58.4899 49.9101 60.6099 49.0801 61.6799 49.6901C61.9499 49.8501 62.2899 50.1301 62.6899 50.4601C63.5899 51.2101 64.7199 52.1501 65.3999 51.7701C65.5599 51.6801 65.6399 51.5501 65.6599 51.3701C65.7399 50.5401 64.4399 49.0101 63.8699 48.5301C63.4099 48.1501 63.1699 47.6101 63.2399 47.1001C63.2999 46.6501 63.6199 45.9901 64.8099 45.4301C66.7799 44.5001 68.0799 43.5001 68.2799 42.7701C68.3399 42.5601 68.3099 42.3701 68.1899 42.1901C67.7599 41.5501 66.1099 42.2001 64.7899 42.7301C63.7099 43.1601 62.7899 43.5301 62.3499 43.3301C61.8399 43.1001 62.1799 42.0201 62.6099 40.6601C63.0099 39.3801 63.4699 37.9201 63.1399 37.3101C63.0699 37.1801 62.9699 37.1001 62.8199 37.0601C62.7599 37.0401 62.6999 37.0401 62.6499 37.0401C61.6699 37.0401 60.3899 39.2301 59.7999 40.9401C59.5399 41.6901 59.2599 42.0501 58.9099 42.0701C58.8999 42.0701 58.8799 42.0701 58.8699 42.0701C58.4299 42.0701 57.9799 41.5401 57.3699 40.3201C56.7399 39.0701 56.1499 38.3401 55.6299 38.1801C55.4199 38.1101 55.2199 38.1301 55.0199 38.2301C54.3899 38.5501 54.6799 40.4801 55.7199 42.9101C56.7099 45.2201 54.8199 46.1101 54.7999 46.1201C54.6699 46.1801 51.5499 47.6501 50.6299 47.8901C49.6299 48.1501 48.1599 45.7701 47.9999 45.5001C46.2499 43.4801 42.9399 37.8701 44.5099 34.5001C45.2299 32.9601 47.8999 31.4001 50.7299 29.7301C53.9699 27.8201 57.6399 25.6701 58.7899 23.2701C60.9699 18.6901 62.1199 14.1701 62.3999 9.04009C62.5399 6.41009 61.9799 4.56009 60.6699 3.38009C59.1199 1.98009 56.4499 1.58009 52.7499 2.18009C44.9799 3.44009 39.8799 6.41009 38.2699 7.81009C37.2399 8.70009 36.0199 11.3901 34.7299 14.2501C33.8099 16.2801 32.8599 18.3701 31.8399 20.1801C29.3799 24.5501 26.7199 26.1101 20.4799 26.8501C19.0299 27.0201 17.9199 26.6801 17.1899 25.8401C15.3399 23.7201 16.4799 19.2101 16.5299 19.0201L16.6099 18.7701C16.9799 17.7401 17.6099 16.4601 18.4999 16.1501C18.7999 16.0501 19.2399 15.9801 19.7399 15.9101C20.8999 15.7401 22.3499 15.5301 22.5199 14.7601C22.5599 14.5901 22.5199 14.4401 22.3899 14.3001C21.8299 13.6901 19.8199 13.6401 19.0799 13.7401C18.4899 13.8301 17.9299 13.6501 17.5899 13.2601C17.2899 12.9201 17.0099 12.2401 17.3899 10.9801C18.0099 8.89009 18.1299 7.26009 17.7099 6.62009C17.5899 6.44009 17.4299 6.33009 17.2199 6.30009C17.1999 6.30009 17.1699 6.30009 17.1499 6.30009C16.4099 6.30009 15.8299 7.90009 15.3499 9.20009C14.9499 10.2901 14.6099 11.2301 14.1699 11.4201C14.1199 11.4401 14.0699 11.4501 14.0199 11.4501C13.5499 11.4501 13.0199 10.5501 12.3499 9.44009C11.6599 8.28009 10.8799 6.97009 10.2099 6.81009C10.0699 6.77009 9.92994 6.80009 9.80994 6.88009C8.92994 7.43009 9.74994 10.0401 10.6899 11.7101C11.0799 12.4001 11.1599 12.8601 10.9399 13.1301C10.6699 13.4801 9.96994 13.4801 8.60994 13.1201C7.24994 12.7601 6.32994 12.7101 5.84994 12.9901C5.65994 13.1001 5.53994 13.2601 5.47994 13.4801C5.29994 14.1601 6.92994 15.2301 9.43994 16.0701C11.6899 16.8301 11.2799 18.6601 11.2299 18.8801C11.2299 19.1401 11.2099 22.4101 11.2599 27.8001C11.2999 31.6401 15.2799 32.1601 17.9099 32.5001C19.1399 32.6601 19.9599 32.7601 20.1099 33.1701C20.3999 33.9201 19.4599 35.7101 18.1499 38.1901C17.4299 39.5601 16.6099 41.1201 15.8699 42.7501C12.6299 49.9101 12.7699 57.8801 13.2499 64.0401C14.0799 74.6301 21.5199 82.0101 21.5999 82.0901L21.8499 82.3401L21.4999 82.3101C21.4299 82.3101 14.6999 81.7101 12.0999 83.3101C9.54994 84.8801 12.7999 94.3101 12.8399 94.4001L12.8799 94.5201L12.7599 94.5601C12.6699 94.5901 10.5199 95.3401 9.46994 94.6801C9.19994 94.5101 8.87994 94.2201 8.49994 93.8701C7.62994 93.0801 6.55994 92.0901 5.84994 92.4401C5.68994 92.5201 5.59994 92.6501 5.57994 92.8301C5.46994 93.6501 6.68994 95.2401 7.23994 95.7401C7.67994 96.1501 7.89994 96.6901 7.80994 97.2001C7.72994 97.6501 7.38994 98.2901 6.16994 98.8001C4.15994 99.6401 2.81994 100.58 2.58994 101.31C2.51994 101.52 2.53994 101.71 2.65994 101.89C3.06994 102.55 4.73994 101.97 6.07994 101.5C7.16994 101.12 8.11994 100.79 8.54994 101C9.04994 101.25 8.65994 102.31 8.16994 103.66C7.70994 104.93 7.18994 106.36 7.48994 106.99C7.54994 107.12 7.64994 107.21 7.79994 107.26C8.77994 107.59 10.2899 105.31 10.9899 103.52C11.2799 102.78 11.5799 102.43 11.9299 102.43H11.9399C12.3799 102.43 12.8199 102.97 13.3899 104.24C13.9699 105.52 14.5199 106.27 15.0399 106.46C15.2499 106.54 15.4499 106.53 15.6499 106.43C16.2899 106.14 16.0899 104.2 15.1499 101.73C14.6699 100.47 15.0899 99.7201 15.4499 99.2601C15.7599 98.8701 15.9699 98.5601 16.1699 98.2001L16.7199 97.2501C17.4799 95.9101 17.9199 94.4101 17.9799 92.9101C18.0499 91.1001 17.9299 89.2701 17.9299 89.2601L17.9099 88.9801L18.1299 89.1501C18.1299 89.1501 19.2699 90.0201 21.6599 90.8601C24.0599 91.7001 29.4999 92.1101 29.5599 92.1201H29.5999C29.5999 92.1201 32.4799 93.3901 41.1099 99.1801C50.0799 105.19 57.0399 115.14 57.9099 120.66C58.4799 124.28 58.9399 129.09 57.3999 134.25C55.3799 141.02 50.4599 146.22 42.7799 149.72C33.5299 153.93 25.4099 152.43 20.2299 150.43C15.5299 148.61 12.3299 146.06 11.3999 145.26L11.3899 145.25Z" fill="#89847E"/>
<path d="M53.4999 7.41009L60.1499 2.98009C58.5999 1.91009 56.1799 1.55009 52.6299 2.12009C51.0799 2.37009 49.6299 2.70009 48.2899 3.06009L53.4999 7.41009Z" fill="#E8E6DA"/>
<path d="M53.4899 7.57009L53.4199 7.51009L48.0299 3.01009L48.2599 2.95009C49.6899 2.56009 51.1499 2.24009 52.6099 2.01009C56.0099 1.46009 58.5699 1.75009 60.2199 2.89009L60.3699 2.99009L53.4899 7.58009V7.57009ZM48.5599 3.12009L53.5099 7.25009L59.9299 2.97009C58.3299 1.96009 55.8899 1.71009 52.6599 2.24009C51.2899 2.46009 49.9099 2.76009 48.5599 3.12009Z" fill="#89847E"/>
<path d="M56.1199 13.1201L62.3299 6.81009C62.0899 5.15009 61.3999 3.83009 60.1499 2.97009L53.4999 7.40009L56.1199 13.1101V13.1201Z" fill="#FFD44A"/>
<path d="M56.0799 13.3401L53.3399 7.37009L60.1499 2.83009L60.2199 2.88009C61.4399 3.72009 62.1899 5.04009 62.4499 6.80009V6.86009L62.4099 6.90009L56.0699 13.3401H56.0799ZM53.6599 7.45009L56.1599 12.9001L62.1999 6.76009C61.9499 5.13009 61.2599 3.91009 60.1499 3.12009L53.6599 7.45009Z" fill="#89847E"/>
<path d="M61.2399 16.7501C61.8799 14.3101 62.2799 11.7901 62.4299 9.10009C62.4799 8.28009 62.4399 7.51009 62.3399 6.80009L56.1299 13.1101L61.2499 16.7401L61.2399 16.7501Z" fill="#FF9B0B"/>
<path d="M61.3099 16.9601L55.9199 13.1401L56.0199 13.0401L62.4099 6.55009L62.4499 6.80009C62.5599 7.53009 62.5899 8.31009 62.5399 9.12009C62.3899 11.8001 61.9999 14.3101 61.3499 16.7901L61.2999 16.9601H61.3099ZM56.3099 13.1001L61.1599 16.5401C61.7799 14.1301 62.1499 11.6901 62.2999 9.09009C62.3399 8.39009 62.3199 7.71009 62.2399 7.07009L56.3099 13.0901V13.1001Z" fill="#89847E"/>
<path d="M46.2699 3.66009L43.9799 11.0201L53.4999 7.40009L48.2899 3.05009C47.5899 3.24009 46.9099 3.44009 46.2699 3.65009V3.66009Z" fill="#E8E6DA"/>
<path d="M43.7899 11.2301L46.1699 3.56009L46.2299 3.54009C46.8499 3.34009 47.5099 3.14009 48.2599 2.94009L48.3199 2.92009L48.3699 2.96009L53.7399 7.45009L43.7799 11.2301H43.7899ZM46.3699 3.76009L44.1699 10.8201L53.2499 7.37009L48.2599 3.20009C47.5699 3.39009 46.9499 3.58009 46.3699 3.76009Z" fill="#89847E"/>
<path d="M43.9799 11.0301L48.7399 15.2601L55.1699 16.2101L56.1199 13.1201L53.4999 7.41009L43.9799 11.0301Z" fill="#FFD44A"/>
<path d="M55.2499 16.3501L48.6799 15.3801L43.7399 10.9801L53.5599 7.25009L56.2499 13.1101V13.1601L55.2499 16.3601V16.3501ZM48.7999 15.1401L55.0799 16.0701L55.9899 13.1201L53.4399 7.56009L44.2199 11.0601L48.7999 15.1301V15.1401Z" fill="#89847E"/>
<path d="M55.1699 16.2101L58.7999 23.3801C59.8399 21.2101 60.6399 19.0201 61.2399 16.7501L56.1199 13.1201L55.1699 16.2101Z" fill="#FF4C0D"/>
<path d="M58.7999 23.6701L55.0299 16.2301L55.0499 16.1801L56.0499 12.9201L56.1899 13.0201L61.3799 16.7001L61.3599 16.7801C60.7599 19.0601 59.9599 21.2401 58.9099 23.4301L58.7999 23.6601V23.6701ZM55.2999 16.2001L58.7899 23.1001C59.7599 21.0201 60.5199 18.9601 61.0899 16.8001L56.1799 13.3201L55.2899 16.2001H55.2999Z" fill="#89847E"/>
<path d="M46.2699 3.66009C42.1399 5.02009 39.2999 6.72009 38.0899 7.77009C37.5999 8.19009 37.0899 8.99009 36.5399 10.0101L43.9899 11.0201L46.2799 3.66009H46.2699Z" fill="#E8E6DA"/>
<path d="M44.0699 11.1601H43.9699L36.3499 10.1101L36.4299 9.95009C37.0499 8.79009 37.5599 8.07009 38.0099 7.67009C39.2399 6.61009 42.1299 4.89009 46.2399 3.53009L46.4699 3.45009L44.0799 11.1401L44.0699 11.1601ZM36.7299 9.92009L43.8899 10.8901L46.0799 3.86009C42.1299 5.19009 39.3599 6.84009 38.1699 7.87009C37.7599 8.22009 37.2999 8.88009 36.7299 9.92009Z" fill="#89847E"/>
<path d="M34.2199 14.9001L43.9799 11.0301L36.5299 10.0201C35.8099 11.3601 35.0399 13.0901 34.2199 14.9001Z" fill="#E8E6DA"/>
<path d="M33.9799 15.1301L34.3499 14.3201C35.0799 12.7001 35.7799 11.1801 36.4299 9.96009L36.4699 9.88009L44.4799 10.9601L33.9899 15.1201L33.9799 15.1301ZM36.5999 10.1501C35.9599 11.3401 35.2899 12.8401 34.5699 14.4201L34.4599 14.6701L43.4899 11.0901L36.5999 10.1601V10.1501Z" fill="#89847E"/>
<path d="M33.3399 16.8001L39.4599 18.2601L43.9799 11.0301L34.2199 14.9001C33.9299 15.5301 33.6399 16.1701 33.3399 16.8001Z" fill="#E8E6DA"/>
<path d="M39.5199 18.4001L39.4299 18.3801L33.1599 16.8901L33.2299 16.7501C33.5299 16.1201 33.8199 15.4801 34.1099 14.8501L34.1299 14.8001L44.2899 10.7701L39.5199 18.3901V18.4001ZM33.5199 16.7101L39.3999 18.1101L43.6699 11.2801L34.3099 14.9901C34.0499 15.5601 33.7899 16.1401 33.5199 16.7101Z" fill="#89847E"/>
<path d="M43.9799 11.0301L39.4599 18.2501L48.7399 15.2601L43.9799 11.0301Z" fill="#FFD44A"/>
<path d="M39.1799 18.4801L43.9599 10.8401L44.0699 10.9401L48.9899 15.3201L39.1799 18.4801ZM44.0099 11.2201L39.7499 18.0301L48.4999 15.2101L44.0099 11.2201Z" fill="#89847E"/>
<path d="M48.7399 15.2601L39.4599 18.2501V23.3901H43.9799L48.7399 15.2601Z" fill="#FFD44A"/>
<path d="M44.0499 23.5101H39.3299V18.1601L39.4199 18.1301L49.0099 15.0401L44.0499 23.5101ZM39.5899 23.2601H43.9099L48.4699 15.4801L39.5899 18.3401V23.2601Z" fill="#89847E"/>
<path d="M43.9799 23.3901H50.0499L51.3599 19.3201L55.1699 16.2101L48.7399 15.2601L43.9799 23.3901Z" fill="#FF9B0B"/>
<path d="M50.1399 23.5101H43.7599L48.6699 15.1301H48.7499L55.4499 16.1401L51.4499 19.4001L50.1199 23.5101H50.1399ZM44.1999 23.2601H49.9599L51.2499 19.2501L51.2799 19.2301L54.8699 16.3001L48.8099 15.4001L44.1999 23.2601Z" fill="#89847E"/>
<path d="M51.3599 19.3201L58.7999 23.3901L55.1699 16.2101L51.3599 19.3201Z" fill="#FF4C0D"/>
<path d="M59.0899 23.6901L58.7399 23.5001L51.1399 19.3501L55.2099 16.0201L59.0899 23.6901ZM51.5799 19.3001L58.4999 23.0801L55.1199 16.4101L51.5799 19.3001Z" fill="#89847E"/>
<path d="M50.0499 23.3901L52.8399 28.6201C55.4499 27.0201 57.8799 25.3001 58.7899 23.3901L51.3499 19.3301L50.0399 23.3901H50.0499Z" fill="#FF4C0D"/>
<path d="M52.7899 28.7901L49.9099 23.4001L49.9299 23.3501L51.2899 19.1401L58.9699 23.3301L58.9199 23.4401C57.9599 25.4401 55.3499 27.2301 52.9199 28.7201L52.8099 28.7901H52.7899ZM50.1799 23.3701L52.8899 28.4301C55.2099 27.0001 57.6799 25.3001 58.6299 23.4301L51.4299 19.5001L50.1799 23.3701Z" fill="#89847E"/>
<path d="M33.7499 24.5801L39.4599 18.2501L33.3399 16.7901C32.7899 17.9701 32.2099 19.1201 31.6199 20.1701C30.9799 21.3101 30.3199 22.2501 29.5999 23.0301L33.7499 24.5701V24.5801Z" fill="#E8E6DA"/>
<path d="M33.7899 24.7301L33.7099 24.7001L29.3799 23.0901L29.5099 22.9501C30.2099 22.1901 30.8699 21.2601 31.5199 20.1101C32.0399 19.1901 32.5899 18.1101 33.2299 16.7301L33.2699 16.6401L33.3699 16.6601L39.6899 18.1701L33.7799 24.7201L33.7899 24.7301ZM29.8199 22.9901L33.7199 24.4401L39.2299 18.3301L33.4099 16.9501C32.7799 18.2901 32.2399 19.3401 31.7299 20.2501C31.1099 21.3501 30.4799 22.2501 29.8099 23.0001L29.8199 22.9901Z" fill="#89847E"/>
<path d="M39.4599 18.2501L33.7499 24.5801L36.6099 31.3301L39.4599 23.3901V18.2501Z" fill="#E8E6DA"/>
<path d="M36.6199 31.6801L33.6099 24.5601L39.5899 17.9301V23.4301L36.6199 31.6801ZM33.8999 24.6101L36.5999 30.9901L39.3399 23.3601V18.5701L33.8999 24.6001V24.6101Z" fill="#89847E"/>
<path d="M39.4599 36.3501L45.3499 29.8501L43.9799 23.3901H39.4599L36.6099 31.3301L39.4599 36.3501Z" fill="#FFD44A"/>
<path d="M39.4399 36.5701L39.3599 36.4201L36.4799 31.3501L36.4999 31.3001L39.3899 23.2701H44.0999L44.1199 23.3701L45.5099 29.8901L45.4699 29.9401L39.4599 36.5801L39.4399 36.5701ZM36.7399 31.3201L39.4799 36.1401L45.2099 29.8101L43.8699 23.5101H39.5399L36.7299 31.3201H36.7399Z" fill="#89847E"/>
<path d="M43.9799 23.3901L45.3499 29.8501L51.7699 26.6201L50.0499 23.3901H43.9799Z" fill="#FF9B0B"/>
<path d="M45.2699 30.0301L45.2399 29.8701L43.8399 23.2601H50.1399L51.9599 26.6701L45.2799 30.0301H45.2699ZM44.1399 23.5101L45.4499 29.6601L51.6099 26.5601L49.9799 23.5101H44.1399Z" fill="#89847E"/>
<path d="M45.3499 29.8501L47.1299 32.1001C47.4999 31.8501 47.8999 31.5901 48.3199 31.3301C48.4499 31.2501 48.5899 31.1601 48.7299 31.0801C49.0099 30.9101 49.2999 30.7301 49.5899 30.5601C50.6399 29.9301 51.7499 29.2901 52.8399 28.6201L51.7699 26.6201L45.3499 29.8501Z" fill="#FF9B0B"/>
<path d="M47.1199 32.2401L47.0399 32.1701L45.1699 29.8001L45.3099 29.7301L51.8399 26.4501L53.0199 28.6601L52.9199 28.7201C52.1899 29.1701 51.4399 29.6101 50.7099 30.0401C50.3599 30.2501 50.0099 30.4601 49.6599 30.6601C49.3699 30.8301 49.0799 31.0101 48.7999 31.1801L48.6699 31.2601C48.5799 31.3201 48.4799 31.3701 48.3899 31.4301C47.8999 31.7301 47.5299 31.9801 47.2099 32.2001L47.1199 32.2401ZM45.5499 29.8901L47.1599 31.9301C47.4599 31.7301 47.8099 31.5001 48.2599 31.2201C48.3499 31.1601 48.4499 31.1101 48.5399 31.0501L48.6699 30.9701C48.9499 30.8001 49.2399 30.6201 49.5299 30.4501C49.8699 30.2401 50.2199 30.0401 50.5799 29.8301C51.2699 29.4201 51.9799 29.0001 52.6799 28.5801L51.7299 26.7901L45.5599 29.9001L45.5499 29.8901Z" fill="#89847E"/>
<path d="M44.5199 34.6101C44.8999 33.7901 45.8699 32.9501 47.1299 32.0901L45.3499 29.8401L39.4599 36.3501L44.1299 36.8301C44.0999 36.0301 44.2099 35.2701 44.5199 34.6001V34.6101Z" fill="#FFD44A"/>
<path d="M44.2599 36.9801L39.1999 36.4601L45.3599 29.6601L47.3099 32.1301L47.1999 32.2101C45.7899 33.1801 44.9699 33.9601 44.6399 34.6801C44.3599 35.2801 44.2299 36.0101 44.2599 36.8501V36.9901V36.9801ZM39.7199 36.2601L43.9999 36.7001C43.9899 35.8801 44.1199 35.1601 44.4099 34.5601C44.7599 33.8201 45.5599 33.0301 46.9499 32.0701L45.3499 30.0401L39.7199 36.2601Z" fill="#89847E"/>
<path d="M29.5999 27.8301L33.7499 24.5801L29.5999 23.0401C28.4399 24.3001 27.0999 25.1401 25.3899 25.7401L29.5999 27.8301Z" fill="#FFD44A"/>
<path d="M29.6199 27.9801L25.0799 25.7201L25.3599 25.6201C27.0599 25.0301 28.3799 24.1801 29.5199 22.9601L29.5799 22.9001L29.6599 22.9301L34.0199 24.5501L29.6299 27.9801H29.6199ZM25.7099 25.7601L29.5899 27.6901L33.4999 24.6301L29.6399 23.1901C28.5599 24.3501 27.2999 25.1701 25.7199 25.7601H25.7099Z" fill="#89847E"/>
<path d="M23.1199 26.3501L21.9399 31.3301L29.5899 27.8301L25.3799 25.7401C24.6899 25.9801 23.9399 26.1801 23.1099 26.3501H23.1199Z" fill="#FF9B0B"/>
<path d="M21.7699 31.5501L23.0199 26.2401L23.0999 26.2201C23.9399 26.0501 24.6799 25.8501 25.3499 25.6101L25.3999 25.5901L29.8899 27.8201L21.7599 31.5401L21.7699 31.5501ZM23.2299 26.4601L22.1299 31.1201L29.3099 27.8301L25.3799 25.8801C24.7299 26.1101 24.0199 26.3001 23.2199 26.4601H23.2299Z" fill="#89847E"/>
<path d="M19.8999 33.2801L21.9399 31.3401L23.1199 26.3601C22.5599 26.4701 21.9699 26.5801 21.3299 26.6701L14.9399 32.1901C17.2099 32.8001 19.6699 32.7101 19.8999 33.2901V33.2801Z" fill="#FF4C0D"/>
<path d="M19.8499 33.5001L19.7799 33.3301C19.6799 33.0701 18.7499 32.9501 17.7699 32.8201C16.9299 32.7101 15.8899 32.5701 14.9099 32.3101L14.6799 32.2501L14.8599 32.1001L21.2699 26.5601H21.3099C21.9199 26.4701 22.4999 26.3701 23.0899 26.2501L23.2799 26.2101L22.0499 31.4201L22.0199 31.4501L19.8399 33.5201L19.8499 33.5001ZM15.2099 32.1201C16.1099 32.3401 17.0099 32.4601 17.8099 32.5701C18.8799 32.7101 19.6399 32.8101 19.9199 33.0901L21.8299 31.2701L22.9499 26.5101C22.4299 26.6101 21.9099 26.7001 21.3799 26.7701L15.1999 32.1101L15.2099 32.1201Z" fill="#89847E"/>
<path d="M21.3299 26.6601C21.0099 26.7001 20.6899 26.7501 20.3599 26.7901C18.0899 27.0601 16.9899 26.0201 16.5099 24.6201L14.4999 26.6201L18.0899 29.4701L21.3299 26.6701V26.6601Z" fill="#FF4C0D"/>
<path d="M18.0899 29.6201L18.0099 29.5601L14.3099 26.6301L16.5599 24.3901L16.6299 24.5801C17.1899 26.1901 18.4499 26.8901 20.3499 26.6601C20.6799 26.6201 21.0099 26.5801 21.3199 26.5301L21.7399 26.4701L18.0999 29.6201H18.0899ZM14.6899 26.6001L18.0899 29.3001L20.9399 26.8401C20.7599 26.8601 20.5699 26.8901 20.3799 26.9101C18.4199 27.1401 17.0999 26.4501 16.4599 24.8401L14.6899 26.6001Z" fill="#89847E"/>
<path d="M14.9499 32.1801L18.0899 29.4601L14.4999 26.6101L13.3099 31.5401C13.8199 31.8101 14.3699 32.0101 14.9499 32.1701V32.1801Z" fill="#FF4C0D"/>
<path d="M14.9799 32.3101L14.9199 32.2901C14.2999 32.1201 13.7399 31.9101 13.2599 31.6501L13.1699 31.6101L13.1899 31.5201L14.4199 26.4001L18.2799 29.4601L14.9699 32.3201L14.9799 32.3101ZM13.4599 31.4801C13.8899 31.7001 14.3799 31.8801 14.9199 32.0301L17.8999 29.4601L14.5799 26.8301L13.4599 31.4801Z" fill="#89847E"/>
<path d="M11.0399 27.8701C11.0599 29.7701 12.0199 30.8701 13.3099 31.5501L14.4999 26.6201L11.0099 21.6301C11.0099 23.1401 11.0099 25.2501 11.0399 27.8801V27.8701Z" fill="#1386A0"/>
<path d="M13.3899 31.7301L13.2499 31.6501C11.6999 30.8301 10.9299 29.5901 10.9199 27.8601C10.8899 25.0301 10.8899 22.9001 10.8899 21.6101V21.2101L14.6399 26.5801V26.6301L13.3999 31.7201L13.3899 31.7301ZM11.1699 27.8701C11.1799 29.4401 11.8599 30.5901 13.2299 31.3601L14.3699 26.6401L11.1399 22.0201C11.1399 23.3301 11.1499 25.3101 11.1699 27.8701Z" fill="#89847E"/>
<path d="M11.0099 18.9401C11.0099 18.9401 11.0099 19.8901 11.0099 21.6301L14.4999 26.6201V15.2701L10.7099 17.2101C11.2999 18.0301 11.0199 18.9401 11.0199 18.9401H11.0099Z" fill="#2BA52E"/>
<path d="M14.6199 27.0101L10.8799 21.6601V21.6201C10.8799 19.8801 10.8799 18.9301 10.8799 18.9301V18.8901C10.8799 18.8901 11.1399 18.0201 10.5899 17.2701L10.5099 17.1501L14.6199 15.0501V27.0101ZM11.1399 21.5801L14.3799 26.2101V15.4601L10.8899 17.2501C11.3699 18.0201 11.1799 18.8201 11.1399 18.9501C11.1399 19.0801 11.1399 20.0001 11.1399 21.5801Z" fill="#89847E"/>
<path d="M16.5399 19.1101L16.6199 18.8701C16.7199 18.5901 16.9999 17.8601 17.4099 17.2501L14.4999 15.2501V26.6001L16.5099 24.6001C15.7099 22.3201 16.5499 19.1001 16.5499 19.1001L16.5399 19.1101Z" fill="#1386A0"/>
<path d="M14.3699 26.9201V15.0301L17.5699 17.2301L17.4999 17.3301C17.2199 17.7501 16.9599 18.2801 16.7299 18.9201L16.6599 19.1501C16.6299 19.2701 15.8599 22.3901 16.6199 24.5801L16.6499 24.6501L14.3699 26.9101V26.9201ZM14.6199 15.5001V26.3201L16.3599 24.5901C15.5999 22.3101 16.3799 19.2201 16.4199 19.0901L16.4999 18.8401C16.7199 18.2301 16.9699 17.7101 17.2299 17.3001L14.6199 15.5101V15.5001Z" fill="#89847E"/>
<path d="M31.6799 36.3501L36.6099 31.3301L33.7499 24.5801L29.5999 27.8301L31.6799 36.3501Z" fill="#FFD44A"/>
<path d="M31.6099 36.6001L31.5599 36.3801L29.4699 27.7801L33.8099 24.3801L36.7599 31.3601L31.6099 36.6001ZM29.7399 27.8801L31.7399 36.1101L36.4499 31.3101L33.6899 24.7901L29.7299 27.8901L29.7399 27.8801Z" fill="#89847E"/>
<path d="M21.9499 31.3301L31.6799 36.3501L29.5999 27.8301L21.9499 31.3301Z" fill="#FF9B0B"/>
<path d="M31.8599 36.5901L31.6199 36.4701L21.6599 31.3301L29.6799 27.6601L29.7199 27.8101L31.8599 36.6001V36.5901ZM22.2299 31.3401L31.4899 36.1201L29.5199 28.0101L22.2399 31.3401H22.2299Z" fill="#89847E"/>
<path d="M19.8999 33.2801L23.4899 42.2001L26.8099 37.3201L31.6799 36.3501L21.9499 31.3301L19.8999 33.2801Z" fill="#FF9B0B"/>
<path d="M23.4599 42.4701L19.7499 33.2501L21.9199 31.1901L21.9999 31.2301L32.0499 36.4101L26.8799 37.4301L23.4599 42.4701ZM20.0499 33.3101L23.5199 41.9401L26.7399 37.2001H26.7899L31.2999 36.3001L21.9699 31.4901L20.0499 33.3101Z" fill="#89847E"/>
<path d="M15.6699 42.7701C15.3699 43.4301 15.0899 44.1301 14.8199 44.8601L18.0899 47.6301L23.4899 42.2001L19.8999 33.2801C20.3199 34.3801 17.6999 38.2801 15.6599 42.7701H15.6699Z" fill="#FFD44A"/>
<path d="M18.0999 47.8001L14.6799 44.9001L14.7099 44.8201C14.9799 44.0801 15.2599 43.3801 15.5599 42.7201C16.2999 41.0801 17.1199 39.5201 17.8499 38.1501C19.0299 35.9101 20.0499 33.9801 19.7999 33.3301L20.0299 33.2401L23.6499 42.2401L23.5899 42.3001L18.1099 47.8101L18.0999 47.8001ZM14.9699 44.8201L18.0899 47.4601L23.3499 42.1701L20.0399 33.9301C19.8599 34.8701 19.0699 36.3601 18.0699 38.2601C17.3499 39.6301 16.5299 41.1901 15.7899 42.8201C15.4999 43.4501 15.2299 44.1201 14.9699 44.8201Z" fill="#89847E"/>
<path d="M39.4599 36.3501L36.6099 31.3301L31.6799 36.3501L35.8799 43.1501L39.4599 36.3501Z" fill="#FFD44A"/>
<path d="M35.8899 43.4001L31.5199 36.3401L36.6399 31.1301L39.6099 36.3501L39.5799 36.4101L35.8899 43.4001ZM31.8299 36.3701L35.8699 42.8901L39.3199 36.3501L36.5799 31.5301L31.8299 36.3601V36.3701Z" fill="#89847E"/>
<path d="M37.4399 47.6301L40.3499 42.2001L45.2999 41.1701C44.6499 39.7501 44.1799 38.2301 44.1299 36.8401L39.4599 36.3601L35.8799 43.1501L37.4399 47.6301Z" fill="#FFD44A"/>
<path d="M37.4099 47.9401L35.7399 43.1401L35.7699 43.0901L39.3899 36.2201L44.2499 36.7201V36.8301C44.2999 38.0701 44.6999 39.5501 45.4099 41.1201L45.4799 41.2601L45.3299 41.2901L40.4299 42.3101L37.4099 47.9401ZM36.0099 43.1601L37.4599 47.3201L40.2699 42.0901H40.3299L45.1299 41.0801C44.4599 39.5801 44.0799 38.1601 44.0199 36.9501L39.5399 36.4901L36.0199 43.1601H36.0099Z" fill="#89847E"/>
<path d="M41.1499 49.3101L46.3899 43.2001C46.2099 42.9101 46.0399 42.6001 45.8699 42.2901C45.8499 42.2501 45.8299 42.2201 45.8099 42.1801C45.6399 41.8501 45.4699 41.5201 45.3099 41.1701L40.3599 42.2001L37.4499 47.6301L41.1599 49.3101H41.1499Z" fill="#FF9B0B"/>
<path d="M41.1799 49.4601L41.0899 49.4201L37.2599 47.6801L40.2599 42.0801H40.3199L45.3699 41.0201L45.4099 41.1101C45.5599 41.4301 45.7199 41.7601 45.8999 42.1101L45.9599 42.2201C46.1199 42.5201 46.2799 42.8101 46.4399 43.0701H46.6399L41.1599 49.4601H41.1799ZM37.6099 47.5701L41.1099 49.1601L46.2299 43.1901C46.0799 42.9301 45.9199 42.6501 45.7499 42.3501L45.6899 42.2401C45.5199 41.9201 45.3699 41.6201 45.2299 41.3201L40.4299 42.3201L37.6099 47.5801V47.5701Z" fill="#89847E"/>
<path d="M37.4399 47.6301V54.6801L29.5999 46.4701L37.4399 47.6301Z" fill="#FFD44A"/>
<path d="M37.5599 54.9901L29.2599 46.3001L37.5599 47.5301V55.0001V54.9901ZM29.9399 46.6501L37.3099 54.3701V47.7401L29.9399 46.6501Z" fill="#89847E"/>
<path d="M18.0899 47.6301L18.9999 55.9501L29.5999 46.4701L25.2399 45.8301L18.0899 47.6301Z" fill="#E8E6DA"/>
<path d="M18.8999 56.2001L17.9599 47.5301L25.2299 45.7001H25.2599L29.8899 46.3901L18.8999 56.2001ZM18.2299 47.7301L19.0999 55.7001L29.3299 46.5701L25.2499 45.9701L18.2299 47.7401V47.7301Z" fill="#89847E"/>
<path d="M18.9999 55.9501L29.5999 46.4701L28.6199 55.9501H18.9999Z" fill="#E8E6DA"/>
<path d="M28.7299 56.0701H18.6699L29.7599 46.1601L28.7299 56.0701ZM19.3199 55.8201H28.5099L29.4499 46.7801L19.3299 55.8201H19.3199Z" fill="#89847E"/>
<path d="M29.5999 46.4701L28.6199 55.9501L38.0999 59.9301L37.4399 54.6801L29.5999 46.4701Z" fill="#FFD44A"/>
<path d="M38.2499 60.1301L28.4899 56.0301V55.9401L29.5099 46.2001L37.5599 54.6301V54.6701L38.2499 60.1401V60.1301ZM28.7499 55.8701L37.9399 59.7301L37.3099 54.7301L29.6899 46.7501L28.7499 55.8601V55.8701Z" fill="#89847E"/>
<path d="M43.2799 61.3301C41.9599 56.5101 41.3999 51.0601 41.2699 49.6201L41.1499 49.3101L37.4399 47.6301V54.6801L38.0999 59.9301L43.2799 61.3301Z" fill="#FFD44A"/>
<path d="M43.4499 61.5101L37.9799 60.0301V59.9501L37.3099 54.7001V47.4401L41.2399 49.2201L41.3899 49.6101C41.5299 51.1401 42.0899 56.5201 43.3999 61.3001L43.4599 61.5101H43.4499ZM38.2099 59.8301L43.0999 61.1501C41.8299 56.4101 41.2799 51.1801 41.1399 49.6401L41.0499 49.4001L37.5699 47.8201V54.6701L38.2199 59.8201L38.2099 59.8301Z" fill="#89847E"/>
<path d="M18.0899 47.6301L25.2399 45.8301L37.4399 47.6301L35.8799 43.1501L23.4899 42.2001L18.0899 47.6301Z" fill="#FFD44A"/>
<path d="M17.6799 47.8601L23.4399 42.0701H23.4999L35.9699 43.0201L35.9999 43.1001L37.6299 47.7801L37.4299 47.7501L25.2499 45.9501L17.6899 47.8601H17.6799ZM25.2299 45.7001H25.2599L37.2599 47.4801L35.7999 43.2701L23.5499 42.3401L18.5099 47.4101L25.2399 45.7101L25.2299 45.7001Z" fill="#89847E"/>
<path d="M23.4899 42.2001L35.8799 43.1501L31.6799 36.3501L26.8099 37.3201L23.4899 42.2001Z" fill="#FFD44A"/>
<path d="M36.1099 43.2901L23.2599 42.3101L26.7299 37.2001H26.7799L31.7299 36.2101L36.1099 43.2901ZM23.7199 42.1001L35.6499 43.0101L31.6199 36.5001L26.8899 37.4301L23.7199 42.1001Z" fill="#89847E"/>
<path d="M18.0899 47.6301L14.8199 44.8601C13.9099 47.3801 13.2099 50.4101 12.9299 54.3401L18.9899 55.9501L18.0899 47.6301Z" fill="#E8E6DA"/>
<path d="M19.1399 56.1201L12.7999 54.4401V54.3401C13.0599 50.7601 13.6799 47.6501 14.6999 44.8301L14.7599 44.6601L18.2099 47.5801V47.6301L19.1399 56.1301V56.1201ZM13.0599 54.2401L18.8499 55.7801L17.9699 47.6901L14.8799 45.0701C13.9099 47.8001 13.3199 50.8001 13.0699 54.2401H13.0599Z" fill="#89847E"/>
<path d="M13.0399 64.0201L18.9999 55.9501L12.9399 54.3401C12.7499 57.0901 12.7499 60.2601 13.0499 64.0201H13.0399Z" fill="#E8E6DA"/>
<path d="M12.9399 64.3601L12.9099 64.0301C12.6299 60.4401 12.5999 57.2601 12.7999 54.3301V54.1801L12.9599 54.2201L19.1999 55.8801L19.0899 56.0301L12.9299 64.3701L12.9399 64.3601ZM13.0499 54.5001C12.8599 57.2901 12.8899 60.2901 13.1399 63.6701L18.7899 56.0201L13.0499 54.5001Z" fill="#89847E"/>
<path d="M28.6199 55.9501L35.5699 69.0101L18.9999 55.9501H28.6199Z" fill="#E8E6DA"/>
<path d="M35.9599 69.4701L18.6299 55.8201H28.6899L28.7299 55.8901L35.9599 69.4701ZM19.3599 56.0701L35.1799 68.5401L28.5499 56.0701H19.3599Z" fill="#89847E"/>
<path d="M28.6199 55.9501L35.5699 69.0101L38.0999 59.9301L28.6199 55.9501Z" fill="#FFD44A"/>
<path d="M35.5999 69.3401L35.4499 69.0601L28.3399 55.6901L38.2399 59.8501L38.2099 59.9601L35.5999 69.3401ZM28.8999 56.2001L35.5399 68.6701L37.9599 60.0001L28.9099 56.2001H28.8999Z" fill="#89847E"/>
<path d="M44.8899 66.0601C44.8899 66.0601 44.8599 65.9801 44.8499 65.9401C44.6999 65.5301 44.5499 65.1101 44.3699 64.6701C44.1799 64.1901 43.9999 63.6801 43.8299 63.1701C43.7999 63.0701 43.7699 62.9801 43.7399 62.8801C43.5799 62.3701 43.4199 61.8601 43.2799 61.3301L38.0999 59.9301L35.5699 69.0101L45.2699 67.2101C45.1499 66.8401 45.0299 66.4601 44.8899 66.0701V66.0601Z" fill="#E8E6DA"/>
<path d="M35.3899 69.1601L38.0099 59.7701L43.3999 61.2301V61.3301C43.5299 61.8001 43.6899 62.3201 43.8499 62.8401L43.8799 62.9301C43.8999 63.0001 43.9199 63.0601 43.9399 63.1301C44.1399 63.7301 44.3099 64.2001 44.4799 64.6301C44.6499 65.0501 44.8099 65.4601 44.9599 65.9001L44.9999 66.0201C45.1399 66.4101 45.2699 66.7901 45.3799 67.1701L45.4199 67.3001L45.2799 67.3301L35.3799 69.1601H35.3899ZM38.1899 60.0801L35.7499 68.8401L45.1199 67.1001C45.0199 66.7701 44.8999 66.4401 44.7799 66.1001L44.7399 65.9801C44.5899 65.5401 44.4299 65.1301 44.2599 64.7201C44.0899 64.2901 43.9199 63.8101 43.7199 63.2101C43.6999 63.1401 43.6799 63.0801 43.6499 63.0101L43.6199 62.9201C43.4599 62.4201 43.3099 61.9201 43.1799 61.4301L38.1899 60.0801Z" fill="#89847E"/>
<path d="M18.9999 55.9501L15.1699 61.1301L21.3299 69.0101L24.2999 60.1301L18.9999 55.9501Z" fill="#E8E6DA"/>
<path d="M21.3799 69.2701L21.2399 69.0901L15.0199 61.1401L15.0799 61.0601L18.9799 55.7701L19.0799 55.8501L24.4499 60.0801L24.4199 60.1601L21.3799 69.2601V69.2701ZM15.3199 61.1301L21.2799 68.7501L24.1499 60.1701L19.0199 56.1301L15.3199 61.1301Z" fill="#89847E"/>
<path d="M24.2999 60.1301L21.3299 69.0101L33.7499 76.4501L35.5699 69.0101L24.2999 60.1301Z" fill="#E8E6DA"/>
<path d="M33.8299 76.6501L21.1799 69.0601L21.2099 68.9601L24.2299 59.9101L24.3699 60.0201L35.6999 68.9501L35.6799 69.0301L33.8199 76.6401L33.8299 76.6501ZM21.4799 68.9501L33.6699 76.2601L35.4299 69.0601L24.3599 60.3401L21.4799 68.9601V68.9501Z" fill="#89847E"/>
<path d="M46.8799 74.7501C46.5799 74.4201 46.6299 71.5301 45.2799 67.2101L35.5799 69.0101L33.7599 76.4601L46.8499 74.8701L46.8899 74.7601L46.8799 74.7501Z" fill="#FFD44A"/>
<path d="M33.5899 76.6001L35.4699 68.9001H35.5499L45.3599 67.0701L45.3899 67.1801C46.2499 69.9301 46.5499 72.1001 46.7199 73.4001C46.8099 74.0301 46.8799 74.5801 46.9599 74.6701L47.0099 74.7201L46.9299 74.9701H46.8499L33.5799 76.6001H33.5899ZM35.6699 69.1101L33.9099 76.3001L46.7199 74.7401C46.6299 74.5501 46.5699 74.1701 46.4699 73.4201C46.2999 72.1401 46.0099 70.0201 45.1799 67.3501L35.6599 69.1101H35.6699Z" fill="#89847E"/>
<path d="M13.3699 66.5401L21.3399 69.0001L15.1799 61.1301L13.0499 64.0201C13.0499 64.0201 13.0499 64.0801 13.0499 64.1201C13.1199 64.9501 13.2299 65.7601 13.3699 66.5501V66.5401Z" fill="#FFD44A"/>
<path d="M21.6799 69.2401L13.2599 66.6401V66.5601C13.0799 65.6401 12.9799 64.8601 12.9199 64.1201V63.9801L15.1699 60.9301L15.2699 61.0601L21.6799 69.2501V69.2401ZM13.4799 66.4501L20.9899 68.7701L15.1699 61.3401L13.1599 64.0601V64.1101C13.2199 64.8301 13.3199 65.5701 13.4699 66.4501H13.4799Z" fill="#89847E"/>
<path d="M21.3299 69.0101L19.8999 76.4501H33.7499L21.3299 69.0101Z" fill="#FFD44A"/>
<path d="M34.1999 76.5801H19.7499L21.2399 68.8101L34.1999 76.5801ZM20.0599 76.3301H33.2999L21.4199 69.2101L20.0599 76.3301Z" fill="#89847E"/>
<path d="M19.8999 76.4501L21.3299 69.0001L13.4699 66.5701C14.3699 71.5801 16.5999 75.6901 18.4899 78.4301L19.8999 76.4501Z" fill="#FFD44A"/>
<path d="M18.4899 78.6501L18.3899 78.5001C16.5999 75.9101 14.2799 71.7401 13.3499 66.5901L13.3099 66.3901L21.4699 68.9101L21.4499 69.0201L19.9999 76.5201L18.4899 78.6501ZM13.6299 66.7601C14.5599 71.6801 16.7599 75.6801 18.4899 78.2201L19.7799 76.4001L21.1799 69.0901L13.6199 66.7601H13.6299Z" fill="#89847E"/>
<path d="M19.8999 76.4501L18.4899 78.4301C20.1299 80.8101 21.5099 82.1701 21.5099 82.1701C21.5099 82.1701 21.3299 82.1501 21.0399 82.1401L29.5899 87.4701L25.7799 76.4501H19.8899H19.8999Z" fill="#FF9B0B"/>
<path d="M29.8299 87.7601L20.5599 81.9801L21.0599 82.0101C21.0599 82.0101 21.1599 82.0101 21.1999 82.0101C20.7399 81.5201 19.6299 80.2901 18.3899 78.5001L18.3399 78.4301L19.8399 76.3201H25.8799L25.9099 76.4001L29.8399 87.7501L29.8299 87.7601ZM21.5499 82.3001L29.3699 87.1801L25.6999 76.5801H19.9699L18.6499 78.4401C20.2499 80.7401 21.5899 82.0701 21.6099 82.0901L21.8599 82.3301L21.5499 82.3001Z" fill="#89847E"/>
<path d="M29.5999 87.4701L33.7499 76.4501H25.7899L29.5999 87.4701Z" fill="#FFD44A"/>
<path d="M29.5999 87.8401L25.6199 76.3301H33.9399L29.6099 87.8401H29.5999ZM25.9699 76.5801L29.6099 87.1101L33.5699 76.5801H25.9699Z" fill="#89847E"/>
<path d="M33.7499 76.4501L46.8399 74.8601L51.3599 79.8901H40.9799L33.7499 76.4501Z" fill="#FF9B0B"/>
<path d="M51.6399 80.0201H40.9299L33.3099 76.3801L46.8899 74.7301L46.9299 74.7801L51.6399 80.0301V80.0201ZM41.0099 79.7701H51.0799L46.7899 74.9901L34.1899 76.5301L41.0099 79.7801V79.7701Z" fill="#89847E"/>
<path d="M33.7499 76.4501L29.5999 87.4701L40.9799 79.8901L33.7499 76.4501Z" fill="#FFD44A"/>
<path d="M29.3499 87.7901L33.6799 76.2801L33.7999 76.3401L41.2299 79.8801L29.3499 87.7901ZM33.8199 76.6201L29.8599 87.1501L40.7299 79.9101L33.8199 76.6201Z" fill="#89847E"/>
<path d="M29.4599 92.2201C29.5099 92.2201 29.5399 92.2201 29.5399 92.2201C29.5399 92.2201 31.1699 92.9201 35.8099 95.8501L40.2899 91.0201L29.5999 87.4601L29.4499 92.2101L29.4599 92.2201Z" fill="#FF9B0B"/>
<path d="M35.8299 96.0201L35.7399 95.9601C31.4199 93.2301 29.6999 92.4301 29.4999 92.3501H29.3199L29.4699 87.3001L29.6299 87.3501L40.5099 90.9701L35.8299 96.0201ZM29.5799 92.1101C29.5799 92.1101 31.2499 92.8401 35.7799 95.7001L40.0599 91.0901L29.7099 87.6401L29.5699 92.1101H29.5799Z" fill="#89847E"/>
<path d="M29.5999 87.4701L40.9799 79.8901L47.8799 86.0401V92.7701L40.2899 91.0301L29.5999 87.4701Z" fill="#FFD44A"/>
<path d="M47.9999 92.9301L40.2599 91.1501L29.3099 87.5101L40.9799 79.7401L41.0499 79.8001L47.9899 85.9801V92.9301H47.9999ZM29.8799 87.4301L40.3299 90.9101L47.7499 92.6201V86.1001L40.9699 80.0601L29.8799 87.4401V87.4301Z" fill="#89847E"/>
<path d="M40.9799 79.8901H51.3599L54.3999 84.1101L47.8799 86.0401L40.9799 79.8901Z" fill="#FF9B0B"/>
<path d="M47.8499 86.1801L47.7999 86.1301L40.6599 79.7701H51.4299L51.4699 79.8201L54.6199 84.1801L47.8599 86.1701L47.8499 86.1801ZM41.3099 80.0201L47.9099 85.9001L54.1999 84.0501L51.2999 80.0301H41.3099V80.0201Z" fill="#89847E"/>
<path d="M62.2799 95.2701C58.6899 89.3201 55.0999 85.7001 54.5499 84.2501L54.3999 84.1101L47.8799 86.0301L62.3399 95.5701L62.2799 95.2601V95.2701Z" fill="#FF9B0B"/>
<path d="M62.5099 95.8501L62.2699 95.6901L47.5899 86.0001L54.4399 83.9801L54.6799 84.2101C54.9099 84.8101 55.6999 85.8301 56.7999 87.2401C58.2999 89.1601 60.3399 91.8001 62.3999 95.2101L62.4199 95.2501L62.5299 95.8501H62.5099ZM48.1699 86.0801L62.1599 95.3101C60.1099 91.9201 58.0799 89.3001 56.5899 87.3901C55.4999 85.9801 54.6999 84.9601 54.4499 84.3201L54.3699 84.2501L48.1699 86.0801Z" fill="#89847E"/>
<path d="M47.8799 86.0401V92.7701L62.3399 95.5801L47.8799 86.0401Z" fill="#FFD44A"/>
<path d="M62.9299 95.8201L47.7499 92.8701V85.8001L47.9399 85.9301L62.9299 95.8201ZM47.9999 92.6701L61.7399 95.3401L47.9999 86.2701V92.6701Z" fill="#89847E"/>
<path d="M41.0299 99.2601C41.9399 99.8701 42.8299 100.53 43.6999 101.22L45.3499 95.5801L47.8699 92.7701L40.2899 91.0301L35.8099 95.8601C37.2499 96.7701 38.9699 97.8801 41.0299 99.2701V99.2601Z" fill="#FFD44A"/>
<path d="M43.7699 101.44L43.6299 101.32C42.6699 100.56 41.7999 99.9201 40.9699 99.3601C39.0899 98.1001 37.3399 96.9601 35.7499 95.9601L35.6199 95.8801L40.2499 90.8901L40.3199 90.9101L48.1099 92.7001L45.4599 95.6401L43.7599 101.43L43.7699 101.44ZM41.0999 99.1601C41.8899 99.6901 42.7199 100.3 43.6299 101.01L45.2599 95.5001L47.6399 92.8501L40.3299 91.1701L35.9999 95.8401C37.5499 96.8201 39.2699 97.9401 41.0999 99.1701V99.1601Z" fill="#89847E"/>
<path d="M62.3399 95.5801L47.8799 92.7701L45.3499 95.5801L60.9799 104.31L62.3399 95.5801Z" fill="#FFD44A"/>
<path d="M61.0699 104.51L60.9099 104.42L45.1499 95.6101L45.2499 95.4901L47.8199 92.6301H47.8899L62.4699 95.4701L61.0599 104.5L61.0699 104.51ZM45.5499 95.5501L60.8799 104.12L62.1999 95.6801L47.9299 92.9101L45.5599 95.5501H45.5499Z" fill="#89847E"/>
<path d="M45.3499 95.5801L43.6999 101.22C44.6099 101.94 45.4899 102.7 46.3499 103.48L60.9799 104.31L45.3599 95.5801H45.3499Z" fill="#E8E6DA"/>
<path d="M61.5099 104.47L46.2899 103.61L46.2599 103.58C45.3999 102.79 44.5099 102.03 43.6199 101.32L43.5499 101.27L43.5699 101.19L45.2699 95.4001L45.4099 95.4801L61.5099 104.48V104.47ZM46.3999 103.36L60.4399 104.15L45.4299 95.7601L43.8399 101.17C44.7099 101.86 45.5599 102.59 46.3899 103.36H46.3999Z" fill="#89847E"/>
<path d="M46.3499 103.49C48.1199 105.12 49.7699 106.86 51.2199 108.63L60.9799 104.32L46.3499 103.49Z" fill="#E8E6DA"/>
<path d="M51.1799 108.78L51.1199 108.71C49.6499 106.92 48.0099 105.19 46.2599 103.58L45.9999 103.34L61.4999 104.21L51.1799 108.77V108.78ZM46.6899 103.63C48.3299 105.16 49.8699 106.79 51.2599 108.47L60.4599 104.4L46.6899 103.62V103.63Z" fill="#89847E"/>
<path d="M51.2199 108.63C53.2699 111.12 54.9399 113.64 56.0999 115.94L60.9799 104.31L51.2199 108.62V108.63Z" fill="#E8E6DA"/>
<path d="M56.1099 116.24L55.9899 116C54.8199 113.67 53.1399 111.15 51.1299 108.71L51.0299 108.58L61.2299 104.07L56.1199 116.24H56.1099ZM51.4199 108.67C53.3299 111 54.9299 113.4 56.0899 115.64L60.7399 104.55L51.4199 108.67Z" fill="#89847E"/>
<path d="M68.5999 110.55C67.1699 104.55 64.8499 99.5901 62.4999 95.6301L62.3399 95.5801L60.9799 104.31L65.7899 107.03L68.6099 110.55H68.5999Z" fill="#E8E6DA"/>
<path d="M68.8499 111.07L65.6999 107.13L60.8399 104.38V104.29L62.2399 95.4101L62.5799 95.5201L62.5999 95.5601C65.4199 100.31 67.4799 105.34 68.7199 110.51L68.8499 111.05V111.07ZM61.1099 104.25L65.8799 106.96L68.3399 110.04C67.1099 105.11 65.1199 100.32 62.4299 95.7801L61.1099 104.25Z" fill="#89847E"/>
<path d="M60.9799 104.31L57.9599 111.51L65.7799 107.03L60.9799 104.31Z" fill="#E8E6DA"/>
<path d="M57.6999 111.8L60.9199 104.13L66.0399 107.03L57.6999 111.8ZM61.0399 104.49L58.2199 111.22L65.5399 107.03L61.0499 104.49H61.0399Z" fill="#89847E"/>
<path d="M68.5999 110.55L65.7799 107.03L57.9499 111.51L56.0899 115.94C56.1799 116.13 56.2699 116.31 56.3499 116.49C56.3899 116.58 56.4399 116.67 56.4799 116.76L69.0399 112.59C68.8999 111.9 68.7599 111.22 68.5999 110.56V110.55Z" fill="#E8E6DA"/>
<path d="M56.4199 116.91L56.1799 116.41C56.1199 116.27 56.0499 116.14 55.9799 115.99L55.9499 115.94L57.8499 111.42L57.8899 111.4L65.8099 106.87L65.8799 106.95L68.7199 110.52C68.8799 111.2 69.0299 111.89 69.1699 112.56L69.1899 112.67L69.0899 112.7L56.4299 116.91H56.4199ZM56.2299 115.93C56.2899 116.05 56.3499 116.18 56.4099 116.3L56.5499 116.6L68.8999 112.5C68.7799 111.88 68.6399 111.24 68.4799 110.61L65.7499 107.19L58.0499 111.59L56.2299 115.93Z" fill="#89847E"/>
<path d="M62.8099 114.66L56.4899 116.76C57.1499 118.19 57.5999 119.52 57.7799 120.66C57.9899 121.99 58.2499 123.84 58.2999 126.01L62.3399 120.06L62.8099 114.66Z" fill="#FFD44A"/>
<path d="M58.1799 126.4V126.01C58.1199 123.9 57.8699 122.05 57.6499 120.68C57.4699 119.58 57.0399 118.27 56.3699 116.81L56.3099 116.68L62.9399 114.48L62.9199 114.67L62.4499 120.11L58.1699 126.41L58.1799 126.4ZM56.6599 116.83C57.3099 118.26 57.7299 119.54 57.8999 120.64C58.0999 121.94 58.3399 123.65 58.4099 125.62L62.2199 120.02L62.6699 114.84L56.6599 116.84V116.83Z" fill="#89847E"/>
<path d="M69.0399 112.59L62.7999 114.66L62.3299 120.06L69.9499 124.86C70.0199 123.61 70.0499 122.33 69.9999 120.99C69.8999 118 69.5499 115.19 69.0299 112.57L69.0399 112.59Z" fill="#E8E6DA"/>
<path d="M70.0699 125.09L69.8899 124.98L62.1999 120.14V120.06L62.6799 114.57L62.7599 114.54L69.1299 112.42L69.1599 112.56C69.6999 115.33 70.0299 118.17 70.1299 121C70.1699 122.28 70.1599 123.58 70.0799 124.88V125.09H70.0699ZM62.4699 120L69.8499 124.65C69.9199 123.43 69.9299 122.21 69.8899 121.01C69.7899 118.25 69.4799 115.47 68.9499 112.75L62.9299 114.75L62.4799 120H62.4699Z" fill="#89847E"/>
<path d="M62.3399 120.06L58.2999 126.01C58.3199 126.77 58.2999 127.57 58.2599 128.4L62.8099 125.74L69.8399 126.36C69.8899 125.87 69.9299 125.37 69.9599 124.87L62.3399 120.07V120.06Z" fill="#FFD44A"/>
<path d="M58.1199 128.62V128.39C58.1799 127.61 58.1899 126.84 58.1699 126.01V125.97L62.2999 119.89L62.3999 119.95L70.0799 124.79V124.86C70.0499 125.37 69.9999 125.89 69.9499 126.36V126.48L69.8199 126.47L62.8299 125.85L58.1199 128.6V128.62ZM58.4199 126.05C58.4399 126.78 58.4199 127.48 58.3899 128.17L62.7699 125.61H62.8099L69.7199 126.22C69.7599 125.81 69.7999 125.37 69.8299 124.93L62.3699 120.23L58.4199 126.04V126.05Z" fill="#89847E"/>
<path d="M62.8099 125.74L58.2599 128.4C58.1199 130.81 57.6599 133.47 56.5899 136.14L61.8699 132.59L62.8099 125.74Z" fill="#FF9B0B"/>
<path d="M56.3199 136.47L56.4699 136.09C57.4199 133.73 57.9799 131.14 58.1299 128.39V128.32L58.1899 128.29L62.9599 125.51L61.9799 132.67L61.9299 132.7L56.3099 136.48L56.3199 136.47ZM58.3799 128.47C58.2299 131.08 57.7099 133.55 56.8499 135.81L61.7499 132.51L62.6399 125.97L58.3699 128.46L58.3799 128.47Z" fill="#89847E"/>
<path d="M62.8099 125.74L61.8699 132.59L68.6999 132.51C69.2399 130.6 69.6199 128.54 69.8399 126.36L62.8099 125.74Z" fill="#FFD44A"/>
<path d="M61.7299 132.71L62.6999 125.6H62.8199L69.9799 126.24V126.37C69.7599 128.52 69.3699 130.59 68.8299 132.54L68.7999 132.63L61.7299 132.71ZM62.9099 125.87L62.0099 132.45L68.5999 132.37C69.1199 130.5 69.4799 128.52 69.6899 126.46L62.8999 125.86L62.9099 125.87Z" fill="#89847E"/>
<path d="M61.8699 132.59L56.5899 136.14C56.2999 136.86 55.9699 137.58 55.5899 138.29L64.9699 135.89L68.1199 134.36C68.3299 133.75 68.5199 133.14 68.6999 132.5L61.8699 132.58V132.59Z" fill="#FF9B0B"/>
<path d="M55.3399 138.48L55.4699 138.23C55.8299 137.55 56.1699 136.83 56.4699 136.09V136.05L56.5199 136.03L61.8299 132.46H61.8699L68.8699 132.38L68.8299 132.54C68.6599 133.13 68.4699 133.74 68.2499 134.41L68.2299 134.46L65.0299 136.01L55.3499 138.49L55.3399 138.48ZM56.6899 136.22C56.4299 136.87 56.1399 137.5 55.8299 138.1L64.9299 135.77L68.0099 134.28C68.2099 133.7 68.3799 133.16 68.5299 132.64L61.8999 132.72L56.6799 136.23L56.6899 136.22Z" fill="#89847E"/>
<path d="M55.5899 138.29C55.0199 139.35 54.3499 140.41 53.5399 141.44L58.5299 148.85C59.1499 148.28 59.7799 147.67 60.3899 147.03L64.9699 135.89L55.5899 138.29Z" fill="#FF9B0B"/>
<path d="M58.5099 149.05L58.4299 148.93L53.3899 141.44L53.4499 141.37C54.2199 140.39 54.8999 139.33 55.4799 138.24L55.5099 138.19H55.5599L65.1799 135.72L60.4899 147.13C59.8999 147.75 59.2699 148.37 58.6299 148.96L58.5199 149.06L58.5099 149.05ZM53.6999 141.45L58.5599 148.67C59.1599 148.12 59.7399 147.54 60.2899 146.97L64.7599 136.08L55.6799 138.4C55.1099 139.46 54.4499 140.49 53.6999 141.45Z" fill="#89847E"/>
<path d="M64.9599 135.89L60.3799 147.03C63.4599 143.78 66.3199 139.6 68.1099 134.37L64.9599 135.9V135.89Z" fill="#FF9B0B"/>
<path d="M60.0199 147.6L64.8699 135.8L64.9099 135.78L68.3299 134.12L68.2299 134.4C66.6199 139.11 64.0099 143.39 60.4699 147.11L60.0099 147.59L60.0199 147.6ZM65.0599 135.98L60.7599 146.44C63.9699 142.94 66.3599 138.96 67.8999 134.61L65.0599 135.98Z" fill="#89847E"/>
<path d="M53.5399 141.44C51.7899 143.69 49.4099 145.84 46.2499 147.73L56.3099 145.57L53.5299 141.44H53.5399Z" fill="#FF9B0B"/>
<path d="M45.5399 148.01L46.1899 147.62C49.1499 145.85 51.5899 143.74 53.4399 141.36L53.5499 141.22L53.6499 141.36L56.5299 145.64L45.5499 148L45.5399 148.01ZM53.5299 141.65C51.7999 143.83 49.5899 145.78 46.9399 147.45L56.1099 145.48L53.5299 141.65Z" fill="#89847E"/>
<path d="M58.5299 148.86L56.3199 145.57L46.2599 147.73C45.4299 148.23 44.5499 148.7 43.5999 149.16L57.4699 149.79C57.8199 149.49 58.1799 149.17 58.5299 148.85V148.86Z" fill="#FF9B0B"/>
<path d="M57.5099 149.93H57.4599L43.0999 149.27L43.5399 149.06C44.4799 148.6 45.3699 148.12 46.1899 147.63H46.2299L56.3799 145.44L56.4299 145.51L58.6999 148.89L58.6199 148.96C58.2599 149.29 57.8999 149.61 57.5499 149.91L57.5099 149.94V149.93ZM44.0899 149.06L57.4199 149.67C57.7299 149.41 58.0399 149.13 58.3599 148.83L56.2599 145.7L46.2999 147.84C45.6099 148.25 44.8699 148.66 44.0899 149.05V149.06Z" fill="#89847E"/>
<path d="M57.4699 149.8L43.5999 149.17C43.3099 149.31 43.0199 149.46 42.7199 149.6C42.4399 149.73 42.1599 149.84 41.8799 149.96L50.0599 154.79C52.1699 153.72 54.8099 152.08 57.4799 149.81L57.4699 149.8Z" fill="#FF4C0D"/>
<path d="M50.0499 154.93L49.9899 154.89L41.5999 149.93L42.1199 149.71C42.2999 149.63 42.4899 149.56 42.6699 149.47C42.8899 149.37 43.1099 149.26 43.3199 149.16L43.5799 149.03H43.6099L57.7899 149.68L57.5499 149.89C54.6499 152.37 51.8999 153.98 50.1099 154.89L50.0499 154.92V154.93ZM42.1499 149.97L50.0499 154.64C51.7799 153.75 54.3799 152.23 57.1399 149.91L43.6199 149.29L43.4199 149.39C43.1999 149.5 42.9899 149.6 42.7599 149.71C42.5699 149.8 42.3899 149.87 42.1999 149.95L42.1399 149.97H42.1499Z" fill="#89847E"/>
<path d="M50.0499 154.78L45.3499 152L36.5599 157.85C40.9099 157.77 44.8399 156.95 47.5599 155.9C48.2499 155.64 49.0899 155.26 50.0499 154.77V154.78Z" fill="#FF9B0B"/>
<path d="M36.1299 157.99L45.3499 151.86L50.3099 154.79L50.1099 154.89C49.2199 155.34 48.3599 155.73 47.6099 156.02C44.5699 157.19 40.5499 157.9 36.5599 157.98H36.1299V157.99ZM45.3599 152.15L36.9899 157.72C40.7999 157.6 44.6199 156.91 47.5199 155.79C48.1999 155.53 48.9899 155.18 49.7899 154.77L45.3599 152.15Z" fill="#89847E"/>
<path d="M39.2499 150.93L35.4799 157.87C35.8399 157.87 36.1999 157.87 36.5599 157.86L45.3499 152.01L41.8699 149.95C40.9899 150.32 40.1099 150.66 39.2499 150.93Z" fill="#FF4C0D"/>
<path d="M35.6599 158C35.5999 158 35.5399 158 35.4699 158H35.2599L39.1599 150.83L39.2099 150.81C40.0299 150.55 40.8899 150.23 41.8199 149.83L41.8799 149.81L41.9299 149.84L45.5799 152L36.5899 157.98H36.4099C36.1599 157.98 35.9099 157.99 35.6599 157.99V158ZM39.3399 151.03L35.6899 157.74C35.9299 157.74 36.1699 157.74 36.4099 157.74H36.5199L45.1199 152.02L41.8699 150.1C40.9699 150.48 40.1399 150.79 39.3399 151.04V151.03Z" fill="#89847E"/>
<path d="M25.0099 156.14L37.5899 154L39.2599 150.93C35.7899 152.04 32.5199 152.39 29.5099 152.26L24.0499 155.79C24.3699 155.91 24.6899 156.03 25.0099 156.14Z" fill="#FF4C0D"/>
<path d="M24.9899 156.27H24.9599C24.6399 156.15 24.3199 156.03 23.9899 155.9L23.7599 155.81L29.4599 152.13H29.4999C32.7499 152.28 36.0199 151.83 39.2099 150.81L39.5099 150.72L37.6599 154.11H37.5999L24.9899 156.27ZM24.3199 155.76C24.5499 155.85 24.7799 155.93 25.0199 156.01L37.5099 153.88L38.9999 151.14C35.8899 152.1 32.7099 152.51 29.5399 152.38L24.3199 155.75V155.76Z" fill="#89847E"/>
<path d="M29.4999 152.26C25.5399 152.09 22.0499 151.09 19.2099 149.87V149.98L25.3999 154.91L29.4999 152.26Z" fill="#FF4C0D"/>
<path d="M25.3899 155.06L25.3199 155L19.0899 150.03V149.67L19.2599 149.74C22.5899 151.17 26.0399 151.97 29.4999 152.12L29.8899 152.14L25.3799 155.05L25.3899 155.06ZM19.7099 150.21L25.4099 154.75L29.1099 152.36C25.9299 152.18 22.7799 151.46 19.7099 150.21Z" fill="#89847E"/>
<path d="M24.0399 155.78L25.3999 154.9L19.2099 149.97L22.0499 154.92C22.6999 155.23 23.3699 155.52 24.0399 155.78Z" fill="#FF4C0D"/>
<path d="M24.0599 155.92L23.9999 155.9C23.3499 155.65 22.6799 155.36 22.0099 155.04L21.9699 155.02L21.9499 154.99L18.7799 149.47L25.6099 154.92L24.0499 155.93L24.0599 155.92ZM22.1499 154.83C22.7899 155.13 23.4199 155.41 24.0299 155.64L25.1899 154.89L19.6499 150.47L22.1499 154.82V154.83Z" fill="#89847E"/>
<path d="M22.0599 154.93L19.2199 149.98L15.4299 150.73C16.8199 151.9 18.6399 153.16 21.0699 154.45C21.3899 154.62 21.7299 154.77 22.0599 154.93Z" fill="#FF4C0D"/>
<path d="M22.3699 155.21L21.7199 154.9C21.4799 154.79 21.2499 154.68 21.0099 154.55C18.7999 153.38 16.8999 152.12 15.3399 150.81L15.1399 150.64L19.2699 149.82L19.3099 149.9L22.3499 155.2L22.3699 155.21ZM15.7099 150.8C17.2099 152.04 19.0299 153.23 21.1299 154.34C21.3399 154.45 21.5399 154.55 21.7499 154.64L19.1499 150.11L15.7099 150.79V150.8Z" fill="#89847E"/>
<path d="M13.3399 146.59L13.2999 146.69L13.0099 148.29C13.5999 149.03 14.3899 149.85 15.4299 150.73L19.2199 149.98V149.87C16.7099 148.8 14.7199 147.56 13.3399 146.59Z" fill="#FF4C0D"/>
<path d="M15.3899 150.86L15.3399 150.82C14.3799 150.01 13.5599 149.19 12.8999 148.37L12.8599 148.33L13.1599 146.68L13.2699 146.41L13.3999 146.5C15.2199 147.78 17.1899 148.88 19.2599 149.76L19.3399 149.79V150.08L19.2399 150.1L15.3899 150.86ZM13.1399 148.26C13.7699 149.04 14.5599 149.83 15.4599 150.59L18.9599 149.89C16.9999 149.03 15.1299 147.99 13.3999 146.78L13.1399 148.25V148.26Z" fill="#89847E"/>
<path d="M11.1899 144.91C11.1899 144.91 11.3699 146.27 12.9999 148.29L13.2899 146.69L13.3299 146.59C11.9499 145.62 11.1899 144.91 11.1899 144.91Z" fill="#FF4C0D"/>
<path d="M13.0799 148.58L12.9099 148.37C11.2699 146.34 11.0799 144.98 11.0699 144.93L11.0299 144.59L11.2799 144.83C11.2799 144.83 12.0499 145.54 13.4099 146.5L13.4899 146.56L13.4099 146.76L13.0799 148.6V148.58ZM11.4099 145.27C11.5599 145.77 11.9599 146.75 12.9299 148L13.1799 146.64C12.3499 146.05 11.7399 145.56 11.4099 145.27Z" fill="#89847E"/>
<path d="M48.7399 50.8901L50.4099 47.7801C49.4799 47.7201 48.0899 45.4301 48.0899 45.4301C47.6299 44.8901 47.0799 44.1401 46.5499 43.2701L46.3899 43.2101L43.2999 46.8101L48.7399 50.9001V50.8901Z" fill="#FF9B0B"/>
<path d="M48.7799 51.0801L43.1099 46.8201L43.1999 46.7201L46.3399 43.0501L46.6299 43.1601L46.6499 43.2001C47.1499 44.0201 47.6899 44.7801 48.1799 45.3401C48.5699 45.9801 49.6999 47.6001 50.4199 47.6501H50.6099L48.7799 51.0701V51.0801ZM43.4799 46.7801L48.6999 50.7001L50.2199 47.8701C49.2499 47.5801 48.0399 45.5801 47.9799 45.4901C47.4999 44.9401 46.9599 44.1801 46.4599 43.3701L46.4199 43.3501L43.4799 46.7801Z" fill="#89847E"/>
<path d="M41.2299 49.2401L48.7399 50.8901L43.2999 46.8001L41.2299 49.2401Z" fill="#FF9B0B"/>
<path d="M49.2799 51.1301L41.0099 49.3101L43.2799 46.6201L49.2799 51.1201V51.1301ZM41.4599 49.1601L48.1999 50.6401L43.3099 46.9701L41.4599 49.1601Z" fill="#89847E"/>
<path d="M48.7699 54.4001C48.8799 54.4301 48.9999 54.4401 49.1199 54.4601L48.7399 50.8901L41.2299 49.2401C41.2299 49.2401 45.9099 53.5501 48.7699 54.4001Z" fill="#FF4C0D"/>
<path d="M49.2699 54.6001L49.0299 54.5701C48.9299 54.5601 48.8299 54.5501 48.7399 54.5201C45.8899 53.6701 41.3399 49.5101 41.1499 49.3301L40.8099 49.0201L48.8599 50.7901L49.2699 54.6101V54.6001ZM48.8099 54.2801C48.8599 54.3001 48.9199 54.3101 48.9799 54.3101L48.6199 50.9801L41.6599 49.4501C42.7999 50.4601 46.4499 53.5701 48.7999 54.2701L48.8099 54.2801Z" fill="#89847E"/>
<path d="M49.1299 54.4601C50.2899 54.6101 51.9299 54.0001 53.5099 53.1901C53.5099 53.1901 53.5299 53.1901 53.5299 53.1801C54.0999 52.8901 54.6599 52.5701 55.1899 52.2501C55.2099 52.2401 55.2299 52.2201 55.2599 52.2101C55.4099 52.1201 55.5499 52.0301 55.6999 51.9401C55.7599 51.9001 55.8299 51.8601 55.8899 51.8201C56.0199 51.7401 56.1499 51.6501 56.2799 51.5701C56.3199 51.5501 56.3499 51.5201 56.3799 51.5001C56.6299 51.3301 56.8699 51.1801 57.0899 51.0301C57.1299 51.0001 57.1699 50.9801 57.1999 50.9501C57.3199 50.8701 57.4399 50.7901 57.5399 50.7101L55.7399 50.0001L48.7499 50.8801L49.1299 54.4501V54.4601Z" fill="#FF4C0D"/>
<path d="M49.4999 54.6101C49.3599 54.6101 49.2299 54.6101 49.1099 54.5901H49.0099L48.5999 50.7901L55.7499 49.8901L57.7599 50.6801L57.5799 50.8501C57.4799 50.9201 57.3799 50.9901 57.2699 51.0701C57.2299 51.0901 57.1899 51.1201 57.1499 51.1501C56.9299 51.3001 56.6999 51.4601 56.4399 51.6201L56.3599 51.6701C56.2099 51.7701 56.0799 51.8501 55.9499 51.9301L55.7599 52.0501C55.6199 52.1401 55.4699 52.2301 55.3199 52.3201L55.2699 52.3501C54.6599 52.7101 54.0999 53.0301 53.5799 53.3001C51.8699 54.1801 50.4999 54.6201 49.4899 54.6201L49.4999 54.6101ZM49.2399 54.3501C50.2199 54.4401 51.6299 54.0101 53.4499 53.0801C53.9899 52.8001 54.5499 52.4901 55.1299 52.1401L55.1999 52.1001C55.3399 52.0101 55.4899 51.9201 55.6299 51.8301L55.8199 51.7101C55.9499 51.6301 56.0799 51.5401 56.1999 51.4601L56.2999 51.3901C56.5499 51.2201 56.7899 51.0701 56.9999 50.9201C57.0399 50.8901 57.0799 50.8701 57.1099 50.8401C57.1599 50.8001 57.2099 50.7701 57.2599 50.7301L55.6999 50.1201L48.8599 50.9801L49.2199 54.3301L49.2399 54.3501Z" fill="#89847E"/>
<path d="M50.4099 47.7801L48.7399 50.8901L55.7299 50.0101L55.2599 45.6101C55.1899 45.6801 55.1299 45.7301 55.0699 45.7801C55.0699 45.7801 55.0599 45.7801 55.0499 45.7901C54.9299 45.8801 54.8299 45.9401 54.7699 45.9701C54.7699 45.9701 54.7699 45.9701 54.7599 45.9701C54.7399 45.9801 54.7199 45.9901 54.7199 45.9901C54.7199 45.9901 51.4899 47.5101 50.5699 47.7601C50.5199 47.7701 50.4599 47.7801 50.3999 47.7701L50.4099 47.7801Z" fill="#1386A0"/>
<path d="M48.5199 51.0401L50.3399 47.6401H50.4199C50.4699 47.6401 50.5099 47.6401 50.5499 47.6401C51.4499 47.4001 54.6499 45.9001 54.6799 45.8801L54.7099 45.8601C54.7099 45.8601 54.8499 45.7901 54.9799 45.6801C55.0599 45.6201 55.1199 45.5701 55.1799 45.5101L55.3599 45.3301L55.8599 50.1101L55.7399 50.1301L48.5099 51.0401H48.5199ZM50.4899 47.9001L48.9699 50.7301L55.5999 49.8901L55.1699 45.8501C55.1699 45.8501 55.1599 45.8501 55.1499 45.8601C54.9799 45.9901 54.8699 46.0501 54.8399 46.0701L54.7899 46.1001C54.6599 46.1601 51.5399 47.6301 50.6199 47.8801C50.5799 47.8901 50.5399 47.9001 50.4899 47.9001Z" fill="#89847E"/>
<path d="M55.7299 50.0101L59.0099 45.2501L55.8599 44.1001C55.8799 44.8201 55.5699 45.3201 55.2599 45.6201L55.7299 50.0201V50.0101Z" fill="#2BA52E"/>
<path d="M55.6399 50.3501L55.1299 45.5601L55.1699 45.5201C55.4399 45.2501 55.7499 44.7901 55.7299 44.0901V43.9101L59.1999 45.1801L55.6299 50.3601L55.6399 50.3501ZM55.3999 45.6501L55.8199 49.6501L58.8199 45.3001L55.9899 44.2601C55.9599 44.9101 55.6699 45.3601 55.3999 45.6401V45.6501Z" fill="#89847E"/>
<path d="M55.7299 50.0101L57.5299 50.7201C58.0799 50.3301 58.4299 50.0701 58.4299 50.0701C58.7899 49.9301 59.8999 49.5501 60.8199 49.6001L59.0099 45.2401L55.7299 50.0001V50.0101Z" fill="#1386A0"/>
<path d="M57.5599 50.8601L55.5499 50.0701L59.0499 44.9901L60.9799 49.6401L60.8799 49.7401H60.8199C60.7599 49.7401 60.6999 49.7401 60.6499 49.7401C59.7099 49.7401 58.6499 50.1401 58.4999 50.2001C58.4299 50.2501 58.0999 50.5001 57.6199 50.8401L57.5599 50.8801V50.8601ZM55.9299 49.9501L57.5299 50.5801C58.0399 50.2201 58.3699 49.9701 58.3699 49.9701L58.3999 49.9501C58.4499 49.9301 59.6099 49.4701 60.6499 49.4701L58.9999 45.5001L55.9399 49.9501H55.9299Z" fill="#89847E"/>
<path d="M15.2299 82.2501L29.5399 92.2201L29.5999 87.4601L21.0499 82.1301C20.0399 82.0601 17.5099 81.9501 15.2299 82.2501Z" fill="#FF4C0D"/>
<path d="M29.6599 92.4601L14.8899 82.1701L15.2099 82.1301C17.5299 81.8201 20.0699 81.9501 21.0499 82.0101L21.1099 82.0301L29.7199 87.4001L29.6599 92.4601ZM15.5699 82.3401L29.4199 91.9901L29.4799 87.5401L21.0199 82.2601C20.0699 82.2001 17.7599 82.0901 15.5799 82.3401H15.5699Z" fill="#89847E"/>
<path d="M18.0499 89.2301C18.0499 89.2301 19.1799 90.1001 21.6099 90.9601C24.0399 91.8201 29.5399 92.2201 29.5399 92.2201L23.1099 87.7401L18.0499 89.2301Z" fill="#FF4C0D"/>
<path d="M29.9899 92.3901L29.5299 92.3601C29.4699 92.3601 23.9899 91.9401 21.5699 91.0901C19.1399 90.2401 18.0199 89.3801 17.9699 89.3401L17.7799 89.1901L23.1299 87.6101L23.1799 87.6401L29.9899 92.3801V92.3901ZM18.3299 89.2801C18.7599 89.5601 19.8399 90.2101 21.6499 90.8501C23.6299 91.5501 27.7199 91.9501 29.0899 92.0701L23.0899 87.8901L18.3399 89.2901L18.3299 89.2801Z" fill="#89847E"/>
<path d="M18.0499 89.2301L15.2299 82.2501L23.1099 87.7401L18.0499 89.2301Z" fill="#FF4C0D"/>
<path d="M17.9699 89.3901L17.9299 89.2801L14.9599 81.9101L23.3999 87.7901L17.9799 89.3901H17.9699ZM15.4999 82.6001L18.1199 89.0901L22.8199 87.7101L15.4999 82.6101V82.6001Z" fill="#89847E"/>
<path d="M12.0399 83.1901C11.2599 83.6701 10.9999 84.8501 11.0199 86.2601L18.0399 89.2301L15.2199 82.2501C13.9799 82.4101 12.8199 82.7001 12.0299 83.1901H12.0399Z" fill="#1386A0"/>
<path d="M18.2699 89.4701L10.8899 86.3501V86.2701C10.8699 84.6201 11.2299 83.5501 11.9699 83.0901C12.6899 82.6501 13.7799 82.3201 15.2099 82.1301H15.3099L18.2699 89.4601V89.4701ZM11.1399 86.1801L17.8099 89.0001L15.1399 82.3901C13.7999 82.5801 12.7699 82.8801 12.0999 83.3001C11.4499 83.7001 11.1299 84.6701 11.1399 86.1801Z" fill="#89847E"/>
<path d="M11.2299 88.5301L17.7599 95.0301C17.9499 94.3401 18.0699 93.6301 18.0999 92.9101C18.1799 91.0701 18.0499 89.2401 18.0499 89.2401L11.0299 86.2701C11.0299 86.9801 11.1099 87.7501 11.2399 88.5301H11.2299Z" fill="#1386A0"/>
<path d="M17.8199 95.2601L17.6699 95.1101L11.1099 88.5801V88.5401C10.9699 87.7101 10.8999 86.9501 10.8999 86.2601V86.0701L18.1699 89.1501V89.2301C18.1699 89.2301 18.2999 91.0901 18.2199 92.9101C18.1899 93.6101 18.0799 94.3301 17.8799 95.0601L17.8199 95.2701V95.2601ZM11.3399 88.4701L17.6799 94.7901C17.8399 94.1501 17.9399 93.5201 17.9599 92.9001C18.0299 91.3001 17.9399 89.6901 17.9199 89.3201L11.1399 86.4501C11.1599 87.0601 11.2199 87.7401 11.3299 88.4601L11.3399 88.4701Z" fill="#89847E"/>
<path d="M17.7499 95.0201L11.2199 88.5201C11.6799 91.4401 12.7199 94.4201 12.7199 94.4201L17.6799 95.2501C17.6999 95.1701 17.7199 95.1001 17.7399 95.0201H17.7499Z" fill="#2BA52E"/>
<path d="M17.7799 95.4001L17.6699 95.3801L12.6299 94.5401L12.6099 94.4701C12.6099 94.4701 11.5599 91.4401 11.1099 88.5401L11.0499 88.1601L17.8999 94.9801L17.8599 95.1301C17.8499 95.1801 17.8299 95.2301 17.8199 95.2801L17.7899 95.3901L17.7799 95.4001ZM12.8199 94.3201L17.5999 95.1101C17.5999 95.1101 17.5999 95.0801 17.6099 95.0701L11.4099 88.8801C11.8499 91.3901 12.6699 93.8701 12.8199 94.3101V94.3201Z" fill="#89847E"/>
<path d="M16.8199 97.3001C17.1899 96.6501 17.4799 95.9701 17.6899 95.2601L12.7299 94.4301L16.3899 98.0501L16.8299 97.3001H16.8199Z" fill="#2BA52E"/>
<path d="M16.4099 98.2501L12.3599 94.2401L17.8499 95.1501L17.8099 95.2901C17.5899 96.0101 17.2999 96.7101 16.9299 97.3601L16.4099 98.2501ZM13.0899 94.6201L16.3499 97.8501L16.7099 97.2401C17.0399 96.6501 17.3199 96.0201 17.5299 95.3601L13.0899 94.6201Z" fill="#89847E"/>
<path d="M15.5399 99.3201C15.8199 98.9601 16.0499 98.6401 16.2699 98.2501L16.3899 98.0501L12.7299 94.4301L15.0699 100.42C15.1199 99.9401 15.3299 99.5901 15.5399 99.3201Z" fill="#2BA52E"/>
<path d="M15.1299 100.95L12.3899 93.9301L16.5299 98.0301L16.3699 98.3101C16.1599 98.6701 15.9399 99.0001 15.6299 99.4001C15.3699 99.7401 15.2199 100.07 15.1799 100.44L15.1299 100.95ZM13.0599 94.9301L15.0299 99.9801C15.1099 99.7201 15.2499 99.4801 15.4399 99.2301C15.7499 98.8401 15.9599 98.5301 16.1599 98.1701L16.2299 98.0501L13.0599 94.9201V94.9301Z" fill="#89847E"/>
<path d="M51.3599 79.8901L54.3999 84.1101L54.4899 84.0201C54.0299 81.4601 56.5099 75.8001 56.5099 75.8001L51.3599 79.8901Z" fill="#FF9B0B"/>
<path d="M54.3899 84.3101L51.1899 79.8701L51.2799 79.8001L56.8199 75.4001L56.6199 75.8601C56.5999 75.9201 54.1599 81.5201 54.6099 84.0101V84.0701L54.3899 84.3101ZM51.5299 79.9201L54.3299 83.8001C54.0899 81.5701 55.6399 77.5601 56.1999 76.2101L51.5299 79.9201Z" fill="#89847E"/>
<path d="M50.6899 70.2401C48.7199 72.3801 47.1599 74.8201 46.9299 74.7901L51.3599 79.9001L56.5099 75.8101L54.4599 72.6301L50.6899 70.2401Z" fill="#FF9B0B"/>
<path d="M51.3399 80.0701L51.2599 79.9801L46.6099 74.6301L46.9099 74.6701C47.0399 74.5901 47.4599 74.0301 47.9099 73.4501C48.5899 72.5501 49.5299 71.3201 50.5899 70.1701L50.6599 70.0901L54.5599 72.5701L56.6699 75.8501L56.5799 75.9201L51.3399 80.0801V80.0701ZM47.1199 74.8201L51.3799 79.7301L56.3499 75.7901L54.3799 72.7301L50.7199 70.4101C49.6899 71.5301 48.7899 72.7201 48.1199 73.6001C47.5599 74.3301 47.2899 74.6801 47.1199 74.8301V74.8201Z" fill="#89847E"/>
<path d="M55.3899 67.1001C53.8299 67.2501 52.1499 68.6501 50.6899 70.2401L54.4599 72.6301L55.3899 67.1101V67.1001Z" fill="#FF4C0D"/>
<path d="M54.5499 72.8301L50.4899 70.2601L50.5899 70.1501C52.4199 68.1701 54.0199 67.1001 55.3699 66.9701L55.5299 66.9501L54.5399 72.8201L54.5499 72.8301ZM50.8799 70.2101L54.3599 72.4201L55.2299 67.2501C53.9999 67.4401 52.5399 68.4301 50.8699 70.2201L50.8799 70.2101Z" fill="#89847E"/>
<path d="M55.8999 67.0801C55.7299 67.0601 55.5599 67.0801 55.3899 67.1001L54.4599 72.6201L56.5099 75.8001L57.8099 67.8501C57.1899 67.4301 56.5499 67.1401 55.9099 67.0801H55.8999Z" fill="#FF4C0D"/>
<path d="M56.5799 76.1501L54.3299 72.6501V72.6001L55.2899 66.9801H55.4399C55.5999 66.9501 55.7599 66.9401 55.9299 66.9501C56.5499 67.0101 57.1899 67.2701 57.8899 67.7401L57.9599 67.7801V67.8601L56.5899 76.1301L56.5799 76.1501ZM54.5899 72.6001L56.4299 75.4701L57.6699 67.9201C57.0299 67.5001 56.4499 67.2701 55.8899 67.2101C55.7699 67.2001 55.6399 67.2101 55.4999 67.2101L54.5899 72.5901V72.6001Z" fill="#89847E"/>
<path d="M57.8099 67.8501L57.3099 70.8901L62.4399 73.4901C61.4499 71.7601 59.7299 69.1501 57.8099 67.8501Z" fill="#1386A0"/>
<path d="M62.7499 73.7901L57.1699 70.9601L57.7099 67.6401L57.8699 67.7501C59.8699 69.1001 61.6499 71.8901 62.5399 73.4301L62.7499 73.7901ZM57.4499 70.8201L62.1199 73.1901C61.2199 71.6701 59.6499 69.3301 57.8999 68.0701L57.4499 70.8201Z" fill="#89847E"/>
<path d="M63.3099 75.1201C63.2799 75.0501 63.2099 74.9101 63.0999 74.7101C63.0999 74.7101 63.0899 74.6901 63.0799 74.6801C63.0099 74.5401 62.9199 74.3701 62.8099 74.1801C62.8099 74.1801 62.8099 74.1701 62.8099 74.1601C62.6999 73.9601 62.5799 73.7301 62.4399 73.4901L57.3099 70.8901L57.2599 71.1801L59.8999 76.4601L62.4599 77.9301L63.3899 75.1801C63.3599 75.1801 63.3399 75.1801 63.3399 75.1801C63.3399 75.1801 63.3299 75.1501 63.3199 75.1401L63.3099 75.1201Z" fill="#1386A0"/>
<path d="M62.5299 78.1101L59.8099 76.5401L59.7899 76.5101L57.1299 71.2001L57.2099 70.7101L62.5199 73.4001L62.5399 73.4301C62.6799 73.6701 62.8099 73.9001 62.9199 74.1001C63.0299 74.3101 63.1199 74.4801 63.1999 74.6201L63.0999 74.7101L63.2099 74.6501C63.3099 74.8401 63.3799 74.9801 63.4099 75.0501H63.4399L63.5299 75.1401L63.5099 75.2101L62.5299 78.1101ZM59.9999 76.3601L62.3899 77.7401L63.2299 75.2401L63.1999 75.1701C63.1699 75.1001 63.0999 74.9601 62.9899 74.7601L62.9699 74.7301C62.8999 74.5901 62.8099 74.4201 62.7099 74.2301C62.5999 74.0201 62.4799 73.8101 62.3499 73.5801L57.4099 71.0701V71.1501L59.9999 76.3601Z" fill="#89847E"/>
<path d="M57.2599 71.1701L56.4999 75.8001L58.2799 77.4601C58.3699 77.5501 58.4699 77.6401 58.5799 77.7301L59.8899 76.4501L57.2499 71.1701H57.2599Z" fill="#1386A0"/>
<path d="M58.5999 77.9001L58.5099 77.8301C58.3999 77.7401 58.2999 77.6501 58.1999 77.5501L56.3699 75.8501L57.1999 70.7701L60.0499 76.4701L58.5899 77.8901L58.5999 77.9001ZM56.6399 75.7601L58.3699 77.3701C58.4399 77.4401 58.5099 77.5001 58.5799 77.5601L59.7499 76.4201L57.3199 71.5701L56.6399 75.7501V75.7601Z" fill="#89847E"/>
<path d="M59.8999 76.4501L58.5899 77.7301C59.5199 78.5101 60.9399 79.2501 62.0999 79.7801L62.4599 77.9201L59.8999 76.4501Z" fill="#2BA52E"/>
<path d="M62.1899 79.9701L62.0399 79.9001C60.9599 79.4001 59.4599 78.6401 58.4999 77.8301L58.3899 77.7401L59.8699 76.3001L62.5799 77.8701L62.1699 79.9801L62.1899 79.9701ZM58.7799 77.7201C59.6799 78.4401 60.9999 79.1301 62.0099 79.6001L62.3199 77.9801L59.9199 76.6001L58.7699 77.7201H58.7799Z" fill="#89847E"/>
<path d="M64.9099 74.7301C64.2999 75.2201 63.5899 75.1901 63.3899 75.1701L62.4599 77.9201L66.7999 78.2901L64.9099 74.7301Z" fill="#2BA52E"/>
<path d="M67.0099 78.4401L62.2899 78.0401L63.2999 75.0401H63.3999C63.5299 75.0701 64.2299 75.1201 64.8199 74.6401L64.9399 74.5501L67.0099 78.4401ZM62.6299 77.8101L66.5799 78.1401L64.8699 74.9101C64.3299 75.2801 63.7599 75.3001 63.4799 75.2901L62.6299 77.8001V77.8101Z" fill="#89847E"/>
<path d="M62.4599 77.9201L62.0999 79.7801C63.1899 80.2801 64.0599 80.6101 64.0599 80.6101C64.3999 80.6901 65.3799 80.9701 66.0999 81.4601L66.7999 78.2901L62.4599 77.9201Z" fill="#2BA52E"/>
<path d="M66.1799 81.6701L66.0299 81.5701C65.1999 81.0201 64.0799 80.7501 64.0299 80.7401C64.0099 80.7401 63.1299 80.4001 62.0499 79.9001L61.9599 79.8601L62.3599 77.7901H62.4699L66.9499 78.1801L66.1799 81.6701ZM62.2399 79.7101C63.2799 80.1801 64.0899 80.4901 64.0999 80.4901C64.4999 80.5801 65.3399 80.8401 66.0099 81.2501L66.6399 78.3901L62.5599 78.0401L62.2399 79.7001V79.7101Z" fill="#89847E"/>
<path d="M25.0099 156.14C28.4899 157.34 32.0899 157.84 35.4799 157.87L37.5899 154L25.0099 156.14Z" fill="#FF4C0D"/>
<path d="M35.5499 158H35.4699C31.7499 157.96 28.2099 157.38 24.9599 156.26L24.4999 156.1L37.8099 153.83L35.5499 158ZM25.5199 156.18C28.5899 157.18 31.9199 157.7 35.3999 157.75L37.3499 154.17L25.5199 156.19V156.18Z" fill="#89847E"/>
<path d="M24.9999 156.14L24.0399 155.79C24.3599 155.91 24.6799 156.03 24.9999 156.14Z" fill="#FF4C0D"/>
<path d="M24.9599 156.26C24.6399 156.15 24.3199 156.03 23.9999 155.9L24.0899 155.67L25.0499 156.02L24.9699 156.26H24.9599Z" fill="#89847E"/>
<path d="M24.7899 146.8C22.2899 146.56 19.9599 145.72 17.8799 144.44L18.6399 146.18C20.1099 146.62 21.6499 146.88 23.2399 146.88C23.7599 146.88 24.2799 146.84 24.7899 146.79V146.8Z" fill="#FF4C0D"/>
<path d="M23.2399 147.01C21.7099 147.01 20.1499 146.77 18.5999 146.31L18.5399 146.29L18.5199 146.24L17.5999 144.13L17.9399 144.34C20.0899 145.66 22.3999 146.45 24.7999 146.68V146.93C24.1999 146.99 23.7099 147.02 23.2399 147.02V147.01ZM18.7299 146.09C20.2299 146.54 21.7499 146.77 23.2399 146.77C23.3399 146.77 23.4399 146.77 23.5399 146.77C21.6599 146.44 19.8499 145.77 18.1399 144.77L18.7199 146.1L18.7299 146.09Z" fill="#89847E"/>
<path d="M17.8699 144.44C16.8099 143.79 15.8099 143.03 14.9099 142.15H11.8199C13.7599 144.01 16.0699 145.41 18.6299 146.18L17.8699 144.44Z" fill="#1386A0"/>
<path d="M18.8599 146.39L18.5999 146.31C16.0799 145.55 13.6999 144.14 11.7399 142.25L11.5199 142.04H14.9699L15.0099 142.08C15.8899 142.93 16.8799 143.69 17.9499 144.35L17.9799 144.37L18.8699 146.4L18.8599 146.39ZM12.1399 142.28C13.9599 143.98 16.1199 145.25 18.4099 145.99L17.7699 144.53C16.7099 143.87 15.7299 143.12 14.8599 142.28H12.1399Z" fill="#89847E"/>
<path d="M11.3099 137.39L9.97994 140.16C10.5299 140.88 11.1399 141.54 11.7899 142.16H14.8799C13.4699 140.8 12.2699 139.18 11.3199 137.39H11.3099Z" fill="#1386A0"/>
<path d="M15.1799 142.28H11.7299L11.6899 142.24C10.9999 141.57 10.3999 140.91 9.86994 140.22L9.81994 140.16L11.2899 137.1L11.4099 137.32C12.3499 139.12 13.5399 140.71 14.9499 142.06L15.1699 142.27L15.1799 142.28ZM11.8399 142.03H14.5699C13.2999 140.76 12.2099 139.3 11.3199 137.66L10.1299 140.14C10.6299 140.79 11.1899 141.41 11.8399 142.03Z" fill="#89847E"/>
<path d="M9.97994 140.15L10.6399 138.77L6.69994 133.61C7.38994 136.04 8.51994 138.25 9.97994 140.14V140.15Z" fill="#1386A0"/>
<path d="M9.99994 140.39L9.87994 140.23C8.36994 138.28 7.25994 136.06 6.57994 133.65L6.39994 133.02L10.7899 138.76L10.0099 140.39H9.99994ZM7.01994 134.24C7.67994 136.3 8.66994 138.2 9.95994 139.91L10.4999 138.79L7.01994 134.24Z" fill="#89847E"/>
<path d="M9.74994 133.47L6.10994 130.68C6.22994 131.61 6.39994 132.52 6.63994 133.4L10.6299 138.77L11.2999 137.38C10.6499 136.15 10.1199 134.85 9.73994 133.47H9.74994Z" fill="#1386A0"/>
<path d="M10.6599 139.02L6.51994 133.44C6.28994 132.59 6.10994 131.7 5.97994 130.7L5.93994 130.4L9.84994 133.4V133.44C10.2199 134.75 10.7499 136.06 11.4099 137.33L11.4399 137.39L10.6499 139.03L10.6599 139.02ZM6.75994 133.35L10.6199 138.54L11.1699 137.39C10.5199 136.14 9.99994 134.85 9.63994 133.55L6.27994 130.97C6.39994 131.83 6.55994 132.61 6.75994 133.35Z" fill="#89847E"/>
<path d="M9.00994 128.02C9.00994 127.91 9.01994 127.81 9.01994 127.7L5.91994 127.86C5.91994 127.92 5.91994 127.97 5.91994 128.03C5.91994 128.94 5.99994 129.82 6.10994 130.69L9.74994 133.48C9.26994 131.75 9.00994 129.93 9.00994 128.03V128.02Z" fill="#1386A0"/>
<path d="M9.96994 133.8L5.99994 130.75V130.7C5.85994 129.68 5.79994 128.83 5.79994 128.02C5.79994 127.99 5.79994 127.96 5.79994 127.93C5.79994 127.9 5.79994 127.88 5.79994 127.85V127.73L9.14994 127.56V127.69C9.14994 127.74 9.14994 127.79 9.14994 127.84C9.14994 127.9 9.14994 127.95 9.14994 128.01C9.14994 129.84 9.39994 131.67 9.87994 133.43L9.97994 133.79L9.96994 133.8ZM6.22994 130.62L9.52994 133.15C9.09994 131.48 8.87994 129.76 8.87994 128.02C8.87994 127.96 8.87994 127.9 8.87994 127.84L6.02994 127.98C6.02994 127.98 6.02994 128.01 6.02994 128.03C6.02994 128.81 6.08994 129.64 6.20994 130.62H6.22994Z" fill="#89847E"/>
<path d="M9.02994 127.7C9.04994 126.56 9.14994 125.44 9.33994 124.36L8.26994 123.08L6.16994 124.92C6.01994 125.88 5.92994 126.86 5.91994 127.86L9.01994 127.7H9.02994Z" fill="#1386A0"/>
<path d="M5.79994 127.99V127.86C5.79994 126.91 5.88994 125.95 6.04994 124.91V124.87L8.28994 122.91L9.47994 124.34V124.4C9.27994 125.45 9.16994 126.57 9.15994 127.72V127.84L5.80994 128.01L5.79994 127.99ZM6.28994 124.98C6.13994 125.94 6.06994 126.84 6.04994 127.72L8.89994 127.58C8.91994 126.47 9.01994 125.4 9.19994 124.39L8.24994 123.25L6.27994 124.98H6.28994Z" fill="#89847E"/>
<path d="M8.26994 123.07L9.00994 120.65L7.76994 119.55C6.99994 121.21 6.45994 123.01 6.16994 124.92L8.26994 123.08V123.07Z" fill="#1386A0"/>
<path d="M5.99994 125.24L6.04994 124.9C6.33994 123.01 6.87994 121.2 7.65994 119.5L7.72994 119.35L9.14994 120.61L8.37994 123.14L8.34994 123.16L5.98994 125.23L5.99994 125.24ZM7.81994 119.76C7.12994 121.29 6.63994 122.91 6.34994 124.6L8.15994 123.01L8.86994 120.7L7.81994 119.77V119.76Z" fill="#89847E"/>
<path d="M10.8499 119.56L9.00994 120.65L8.26994 123.07L9.33994 124.35C9.64994 122.66 10.1599 121.05 10.8499 119.55V119.56Z" fill="#1386A0"/>
<path d="M9.41994 124.64L8.13994 123.1L8.15994 123.04L8.90994 120.57L8.94994 120.55L11.1299 119.25L10.9599 119.62C10.2599 121.13 9.75994 122.73 9.45994 124.39L9.40994 124.65L9.41994 124.64ZM8.40994 123.05L9.25994 124.08C9.53994 122.63 9.97994 121.22 10.5699 119.88L9.10994 120.75L8.40994 123.06V123.05Z" fill="#89847E"/>
<path d="M7.77994 119.55L9.01994 120.65L13.0999 112.74C10.8599 114.51 9.03994 116.84 7.77994 119.55Z" fill="#1386A0"/>
<path d="M9.04994 120.85L7.61994 119.58L7.65994 119.5C8.90994 116.8 10.7599 114.43 13.0099 112.65L13.4599 112.29L9.03994 120.85H9.04994ZM7.92994 119.52L8.97994 120.45L12.7099 113.22C10.7199 114.91 9.07994 117.07 7.92994 119.52Z" fill="#89847E"/>
<path d="M13.0899 112.74L9.00994 120.65L10.8499 119.56C11.5099 118.12 12.3499 116.79 13.3199 115.59L13.7799 112.22C13.5499 112.39 13.3199 112.56 13.0999 112.74H13.0899Z" fill="#2BA52E"/>
<path d="M8.69994 120.98L13.0099 112.64L13.0899 112.74L13.0299 112.63C13.2499 112.46 13.4699 112.28 13.6999 112.12L13.9399 111.95L13.4399 115.64L13.4199 115.67C12.4399 116.89 11.6099 118.21 10.9699 119.61L10.9499 119.65L10.9199 119.67L8.70994 120.99L8.69994 120.98ZM13.1899 112.82L9.31994 120.32L10.7499 119.47C11.3999 118.08 12.2199 116.76 13.1899 115.54L13.6099 112.5C13.4699 112.61 13.3299 112.72 13.1899 112.83V112.82Z" fill="#89847E"/>
<path d="M13.7799 112.22L13.3199 115.59C14.6899 113.89 16.3299 112.47 18.1699 111.39L15.3799 111.21C14.8299 111.52 14.2999 111.85 13.7799 112.21V112.22Z" fill="#2BA52E"/>
<path d="M13.1299 116.02L13.6599 112.15L13.6999 112.12C14.1999 111.77 14.7399 111.43 15.3099 111.11L15.3399 111.09H15.3799L18.5799 111.3L18.2199 111.51C16.3899 112.57 14.7699 113.98 13.3999 115.68L13.1199 116.03L13.1299 116.02ZM13.8899 112.29L13.4999 115.17C14.7399 113.7 16.1699 112.47 17.7599 111.49L15.3999 111.34C14.8599 111.64 14.3599 111.96 13.8899 112.29Z" fill="#89847E"/>
<path d="M15.3699 111.22L18.1599 111.4C18.8399 111 19.5499 110.65 20.2899 110.35L20.5499 109.4C18.7099 109.71 16.9699 110.33 15.3699 111.22Z" fill="#2BA52E"/>
<path d="M18.1999 111.52H18.1599L14.9399 111.31L15.3099 111.1C16.9399 110.19 18.6899 109.58 20.5299 109.27L20.7199 109.24L20.3999 110.43L20.3399 110.45C19.6299 110.74 18.9199 111.08 18.2299 111.49L18.1999 111.51V111.52ZM15.8199 111.12L18.1399 111.27C18.8199 110.88 19.5099 110.54 20.1899 110.26L20.3799 109.56C18.7899 109.85 17.2599 110.37 15.8199 111.12Z" fill="#89847E"/>
<path d="M20.5499 109.4L20.2899 110.35C21.6999 109.78 23.1899 109.4 24.7399 109.25C24.2299 109.2 23.7199 109.16 23.1899 109.16C22.2899 109.16 21.4099 109.26 20.5399 109.4H20.5499Z" fill="#2BA52E"/>
<path d="M20.1099 110.56L20.4499 109.29H20.5299C21.5299 109.11 22.3799 109.03 23.1999 109.03C23.6599 109.03 24.1399 109.06 24.7599 109.12V109.37C23.2699 109.52 21.7899 109.88 20.3499 110.47L20.1199 110.56H20.1099ZM20.6499 109.51L20.4799 110.14C21.4699 109.75 22.4899 109.47 23.5099 109.29C23.3999 109.29 23.2999 109.29 23.1999 109.29C22.4099 109.29 21.5999 109.36 20.6499 109.52V109.51Z" fill="#89847E"/>
<path d="M84.0299 42.3301V32.8101H85.5999V42.3301H84.0299ZM87.4499 38.9501H85.1699V37.6901H87.3699C88.0199 37.6901 88.5299 37.5301 88.8799 37.2001C89.2299 36.8701 89.4099 36.4301 89.4099 35.8801C89.4099 35.3301 89.2299 34.8801 88.8799 34.5501C88.5199 34.2201 88.0399 34.0601 87.4099 34.0601H85.1699V32.8001H87.4199C88.1699 32.8001 88.8099 32.9201 89.3399 33.1701C89.8799 33.4201 90.2899 33.7701 90.5799 34.2201C90.8699 34.6701 91.0099 35.2201 91.0099 35.8601C91.0099 36.8401 90.6899 37.6001 90.0399 38.1401C89.3899 38.6801 88.5299 38.9401 87.4399 38.9401L87.4499 38.9501Z" fill="#EAE9E4"/>
<path d="M95.5799 42.5101C94.8599 42.5101 94.2399 42.3501 93.7199 42.0401C93.1999 41.7301 92.7999 41.2801 92.5199 40.6901C92.2399 40.1001 92.0999 39.4101 92.0999 38.6001C92.0999 37.7501 92.2399 37.0301 92.5299 36.4501C92.8199 35.8701 93.2199 35.4201 93.7499 35.1201C94.2799 34.8201 94.8899 34.6601 95.5899 34.6601C96.2899 34.6601 96.9399 34.8201 97.4699 35.1401C97.9899 35.4601 98.3899 35.9101 98.6699 36.4901C98.9399 37.0701 99.0799 37.7801 99.0799 38.6001C99.0799 39.4201 98.9399 40.1401 98.6599 40.7201C98.3799 41.3001 97.9799 41.7501 97.4599 42.0501C96.9399 42.3501 96.3199 42.5101 95.5999 42.5101H95.5799ZM95.5799 41.2501C96.2099 41.2501 96.6999 41.0201 97.0399 40.5601C97.3799 40.1001 97.5399 39.4501 97.5399 38.6001C97.5399 37.7501 97.3699 37.0801 97.0399 36.6201C96.7099 36.1601 96.2199 35.9301 95.5799 35.9301C94.9399 35.9301 94.4599 36.1601 94.1199 36.6201C93.7799 37.0801 93.6199 37.7401 93.6199 38.6101C93.6199 39.4801 93.7899 40.1101 94.1299 40.5701C94.4699 41.0301 94.9499 41.2601 95.5799 41.2601V41.2501Z" fill="#EAE9E4"/>
<path d="M106.93 42.3301L105.45 37.0201L105.25 35.9601H105.33L105.12 37.0201L103.64 42.3301H101.79L99.6299 34.8701H101.24L102.61 40.4101L102.83 41.4301H102.75L102.99 40.4101L104.56 34.8701H106.14L107.72 40.4101L107.94 41.4301H107.84L108.05 40.4101L109.42 34.8701H110.96L108.79 42.3301H106.91H106.93Z" fill="#EAE9E4"/>
<path d="M117.88 37.8601L117.03 38.5601C117.03 37.7101 116.86 37.0601 116.53 36.6001C116.19 36.1401 115.71 35.9101 115.09 35.9101C114.47 35.9101 113.97 36.1401 113.64 36.6001C113.31 37.0601 113.14 37.7301 113.14 38.6001C113.14 39.4701 113.31 40.1001 113.66 40.5701C114.01 41.0301 114.51 41.2601 115.15 41.2601C115.63 41.2601 116.03 41.1501 116.35 40.9201C116.67 40.7001 116.9 40.3501 117.03 39.8801H118.6C118.39 40.7501 117.99 41.4001 117.37 41.8401C116.76 42.2801 116.02 42.5001 115.15 42.5001C114.42 42.5001 113.79 42.3401 113.26 42.0301C112.73 41.7201 112.32 41.2701 112.03 40.6801C111.75 40.0901 111.6 39.4001 111.6 38.5901C111.6 37.7401 111.74 37.0201 112.03 36.4401C112.32 35.8601 112.72 35.4101 113.24 35.1101C113.76 34.8101 114.37 34.6501 115.07 34.6501C115.77 34.6501 116.4 34.8101 116.92 35.1201C117.43 35.4301 117.83 35.8701 118.11 36.4401C118.39 37.0101 118.53 37.7001 118.53 38.5001V38.8601H112.22V37.8401H117.88V37.8601Z" fill="#EAE9E4"/>
<path d="M120.04 42.3301V34.8701H121.54V42.3301H120.04ZM121.53 38.2501H120.97C121.01 37.4101 121.15 36.7301 121.41 36.2001C121.67 35.6701 121.99 35.2801 122.38 35.0401C122.77 34.8001 123.19 34.6701 123.66 34.6701C123.81 34.6701 123.95 34.6901 124.08 34.7201C124.21 34.7501 124.31 34.8001 124.37 34.8701V36.1901C124.26 36.1501 124.14 36.1301 124.01 36.1101C123.88 36.1001 123.73 36.0901 123.58 36.0901C123.23 36.0901 122.92 36.1401 122.66 36.2401C122.4 36.3401 122.19 36.4901 122.02 36.6801C121.85 36.8701 121.73 37.1001 121.65 37.3701C121.57 37.6401 121.53 37.9301 121.53 38.2601V38.2501Z" fill="#EAE9E4"/>
<path d="M131.17 37.8601L130.32 38.5601C130.32 37.7101 130.15 37.0601 129.82 36.6001C129.48 36.1401 129 35.9101 128.38 35.9101C127.76 35.9101 127.26 36.1401 126.93 36.6001C126.6 37.0601 126.43 37.7301 126.43 38.6001C126.43 39.4701 126.6 40.1001 126.95 40.5701C127.3 41.0301 127.8 41.2601 128.44 41.2601C128.92 41.2601 129.32 41.1501 129.64 40.9201C129.96 40.7001 130.19 40.3501 130.32 39.8801H131.89C131.68 40.7501 131.28 41.4001 130.66 41.8401C130.05 42.2801 129.31 42.5001 128.44 42.5001C127.71 42.5001 127.08 42.3401 126.55 42.0301C126.02 41.7201 125.61 41.2701 125.32 40.6801C125.04 40.0901 124.89 39.4001 124.89 38.5901C124.89 37.7401 125.03 37.0201 125.32 36.4401C125.61 35.8601 126.01 35.4101 126.53 35.1101C127.05 34.8101 127.66 34.6501 128.36 34.6501C129.06 34.6501 129.69 34.8101 130.21 35.1201C130.72 35.4301 131.12 35.8701 131.4 36.4401C131.68 37.0101 131.82 37.7001 131.82 38.5001V38.8601H125.51V37.8401H131.17V37.8601Z" fill="#EAE9E4"/>
<path d="M136.12 42.5101C135.47 42.5101 134.9 42.3501 134.43 42.0401C133.95 41.7301 133.59 41.2801 133.34 40.6901C133.09 40.1001 132.96 39.4101 132.96 38.6001C132.96 37.3301 133.25 36.3601 133.81 35.6801C134.38 35.0001 135.15 34.6601 136.12 34.6601C136.96 34.6601 137.63 35.0001 138.13 35.6701C138.63 36.3401 138.88 37.3201 138.88 38.6001C138.88 39.4001 138.77 40.1001 138.54 40.6801C138.32 41.2601 138 41.7101 137.58 42.0301C137.16 42.3501 136.68 42.5101 136.12 42.5101ZM136.32 41.2501C136.92 41.2501 137.37 41.0201 137.69 40.5701C138 40.1201 138.16 39.4601 138.16 38.6001C138.16 37.7401 138 37.0801 137.68 36.6201C137.36 36.1601 136.91 35.9301 136.33 35.9301C135.75 35.9301 135.28 36.1601 134.96 36.6201C134.64 37.0801 134.49 37.7401 134.49 38.6101C134.49 39.4801 134.65 40.1101 134.97 40.5701C135.29 41.0301 135.74 41.2601 136.32 41.2601V41.2501ZM138.15 42.3301V32.2501H139.65V42.3301H138.15Z" fill="#EAE9E4"/>
<path d="M145.7 42.3301H144.2V32.2501H145.7V42.3301ZM147.73 34.6701C148.38 34.6701 148.94 34.8301 149.42 35.1401C149.89 35.4501 150.25 35.9001 150.5 36.4801C150.75 37.0601 150.88 37.7601 150.88 38.5701C150.88 39.8401 150.59 40.8101 150.03 41.4901C149.46 42.1701 148.7 42.5001 147.73 42.5001C146.88 42.5001 146.21 42.1601 145.71 41.4901C145.21 40.8201 144.96 39.8401 144.96 38.5601C144.96 37.7701 145.07 37.0801 145.3 36.4901C145.53 35.9001 145.85 35.4501 146.27 35.1301C146.69 34.8101 147.17 34.6501 147.73 34.6501V34.6701ZM147.53 35.9301C146.92 35.9301 146.47 36.1601 146.16 36.6101C145.85 37.0601 145.7 37.7201 145.7 38.5801C145.7 39.4401 145.86 40.1001 146.18 40.5601C146.5 41.0201 146.95 41.2501 147.54 41.2501C148.13 41.2501 148.58 41.0201 148.89 40.5601C149.2 40.1001 149.36 39.4401 149.36 38.5701C149.36 37.7001 149.2 37.0701 148.88 36.6101C148.56 36.1501 148.11 35.9201 147.54 35.9201L147.53 35.9301Z" fill="#EAE9E4"/>
<path d="M152.6 45.5901C152.44 45.5901 152.28 45.5701 152.13 45.5401C151.98 45.5101 151.86 45.4801 151.77 45.4501V44.3001H152.18C152.39 44.3001 152.57 44.2801 152.73 44.2501C152.89 44.2201 153.03 44.1401 153.16 44.0301C153.29 43.9101 153.42 43.7401 153.56 43.5101C153.69 43.2801 153.84 42.9701 154 42.5801L154.22 42.0601L151.22 34.8601H152.83L154.68 39.5101L155.09 40.8301H154.91L155.33 39.5101L157.12 34.8601H158.65L155.26 43.1901C155.07 43.6601 154.89 44.0401 154.71 44.3501C154.53 44.6601 154.34 44.9001 154.14 45.0801C153.94 45.2601 153.72 45.3901 153.47 45.4701C153.22 45.5401 152.93 45.5801 152.59 45.5801L152.6 45.5901Z" fill="#EAE9E4"/>
</svg>
